<svg width="643" height="623" viewBox="0 0 643 623" fill="none" xmlns="http://www.w3.org/2000/svg">
<path opacity="0.2" d="M351.558 602.405C371.077 602.405 386.9 593.266 386.9 581.993C386.9 570.719 371.077 561.58 351.558 561.58C332.039 561.58 316.216 570.719 316.216 581.993C316.216 593.266 332.039 602.405 351.558 602.405Z" fill="#6E1E25"/>
<path opacity="0.2" d="M362.556 296.348L60.8252 471.606L243.581 577.963L545.312 402.705L362.556 296.348ZM69.0167 471.573L362.556 301.071L537.121 402.672L243.581 573.174L69.0167 471.573Z" fill="#6E1E25"/>
<path opacity="0.2" d="M133.557 471.936L174.91 495.817L214.183 473.125L172.83 449.277L133.557 471.936Z" fill="#6E1E25"/>
<path opacity="0.2" d="M368.367 389.294L327.013 365.413L287.707 388.105L295.139 392.399C289.557 392.927 284.173 394.414 279.879 396.891C278.096 397.915 276.642 399.038 275.453 400.26C253.356 394.282 226.238 396.528 207.973 407.064C184.686 420.507 184.686 442.307 207.973 455.784C231.259 469.227 269.045 469.227 292.332 455.784C307.393 447.097 312.645 434.942 308.252 423.777C312.381 423.018 316.312 421.763 319.615 419.847C323.909 417.37 326.518 414.265 327.443 411.061L329.094 412.019L368.4 389.327L368.367 389.294Z" fill="#6E1E25"/>
<g style="mix-blend-mode:multiply" opacity="0.2">
<path d="M624.32 332.45C601.199 319.106 564.371 318.577 540.127 330.798L614.147 288.057C638.259 274.119 638.259 251.559 614.147 237.62C590.035 223.682 550.894 223.682 526.782 237.62L512.513 245.878C531.043 231.906 529.293 211.824 507.129 199.041C483.017 185.102 443.876 185.102 419.764 199.041C192.583 330.204 282.359 276.266 18.084 428.799C-6.02801 442.738 -6.02801 465.297 18.084 479.236C39.9831 491.887 74.1693 493.01 98.3475 482.704L20.9907 527.361C-3.12135 541.3 -3.12135 563.86 20.9907 577.798C45.1028 591.737 84.2105 591.737 108.356 577.798L143.665 557.419C125.928 571.357 127.909 591.077 149.775 603.694C173.888 617.633 213.028 617.633 237.14 603.694L302.904 565.808C284.506 579.78 286.289 599.797 308.387 612.546C332.499 626.485 371.639 626.485 395.751 612.546L592.017 500.177C616.129 486.239 616.129 463.679 592.017 449.74C572.331 438.378 542.703 436.297 519.351 443.465L624.287 382.887C648.4 368.948 648.4 346.389 624.287 332.45H624.32Z" fill="#AAC7E7"/>
</g>
<path d="M545.315 154.153L362.559 47.7959V296.348L545.315 402.706V154.153Z" fill="#C0C7A9"/>
<path d="M491.61 240.37C508.098 227.968 503.704 194.301 481.794 165.174C459.885 136.046 428.758 122.487 412.269 134.89C395.781 147.292 400.176 180.958 422.085 210.086C443.995 239.213 475.122 252.772 491.61 240.37Z" fill="white"/>
<path d="M419.302 401.284C419.302 401.284 418.344 406.403 418.84 408.616C419.302 410.829 425.148 412.25 425.148 412.25C425.148 412.25 430.103 418.294 437.072 417.733C441.168 417.402 442.555 416.346 443.216 415.123C443.876 413.901 443.249 412.382 442.456 411.259C441.663 410.136 436.379 408.22 434.265 404.818C433.241 403.166 431.49 399.698 431.49 399.698L431.292 397.849C430.995 395.206 428.815 393.158 426.139 393.026C422.539 392.861 419.698 395.801 419.963 399.269L420.029 400.392L419.302 401.251V401.284Z" fill="#0B1017"/>
<path d="M397.965 412.216C397.106 413.834 397.106 416.576 397.04 420.572C398.13 422.785 399.782 424.569 401.763 425.23C401.763 425.23 403.316 432.364 412.862 432.595C421.813 432.827 421.747 429.193 421.714 429.193C421.714 429.193 421.714 427.145 419.666 425.395C418.378 424.305 413.621 420.242 412.432 418.723C411.243 417.203 410.318 414.759 410.318 414.759L409.922 408.285H397.833L397.998 412.15L397.965 412.216Z" fill="#0B1017"/>
<path d="M430.733 304.373L413.326 325.215C414.185 331.788 415.572 344.868 417.125 351.045C414.02 374.893 416.101 401.052 418.016 402.539C420.692 404.752 429.973 406.8 433.706 401.218C433.706 401.218 430.997 374.893 434.432 348.039L430.733 304.406V304.373Z" fill="#603480"/>
<path d="M430.731 304.373C430.632 313.985 428.485 318.84 419.005 324.059L415.933 345.033L413.786 359.699C410.384 387.213 410.153 415.156 410.153 415.156C406.057 420.772 394.662 418.36 394.398 414.76C392.812 393.059 392.416 380.607 396.148 361.482C394.166 350.021 392.944 336.611 393.968 326.107C391.953 319.996 391.953 313.357 393.605 305.661C393.869 305.595 394.265 305.496 394.794 305.364C395.058 305.298 395.322 305.232 395.686 305.133C397.007 304.802 398.956 304.34 401.202 303.779C402.027 303.58 402.853 303.349 403.745 303.151C404.67 302.92 405.628 302.689 406.586 302.457C407.147 302.325 407.742 302.193 408.303 302.028C411.144 301.334 414.084 300.575 416.858 299.914C419.567 299.22 422.11 298.593 424.224 298.097C425.941 297.668 427.395 297.305 428.419 297.04C429.211 296.842 429.74 296.71 429.938 296.644L430.235 296.545H430.5C430.5 296.545 430.5 296.842 430.5 297.04C430.5 297.173 430.5 297.305 430.5 297.404C430.5 298.229 430.566 299.022 430.599 299.815C430.665 301.433 430.698 302.92 430.665 304.34L430.731 304.373Z" fill="#924FC2"/>
<path d="M60.793 223.053L362.557 47.7949V296.347L60.793 471.573V223.053Z" fill="#DCE1CB"/>
<path d="M171.345 192.731L90.8174 239.502V382.886L171.345 336.116V192.731Z" fill="white"/>
<path d="M157.407 327.197V277.321L103.732 308.502V358.377L157.407 327.197Z" fill="#C0C7A9"/>
<path d="M130.586 230.022L103.766 245.613V293.374L130.586 277.784V230.022Z" fill="#FF4555"/>
<path d="M163.254 211.261L136.434 226.851V274.613L163.254 259.022V211.261Z" fill="#9E2E3B"/>
<path d="M252.205 150.42L196.847 182.558V281.187L252.205 249.015V150.42Z" fill="white"/>
<path d="M206.358 224.438V264.636L242.692 243.53V203.332L206.358 224.438Z" fill="#FF4555"/>
<path d="M242.692 194.514V166.967L206.358 188.073V215.587L242.692 194.514Z" fill="#60C1D2"/>
<path d="M330.748 106.358L275.39 138.53V237.125L330.748 204.987V106.358Z" fill="white"/>
<path d="M284.901 197.685V220.575L321.235 199.502V176.579L284.901 197.685Z" fill="#DCE1CB"/>
<path d="M300.03 135.226L284.902 144.012V191.245L300.03 182.459V135.226Z" fill="#924FC2"/>
<path d="M306.107 131.691V178.925L321.235 170.172V122.905L306.107 131.691Z" fill="#FF4555"/>
<path d="M295.142 391.011C295.835 391.011 296.463 390.483 296.529 389.756L300.129 352.895L324.142 339.022L327.577 370.235C327.676 370.995 328.337 371.557 329.13 371.458C329.889 371.358 330.451 370.698 330.352 369.905L326.454 334.431L297.487 351.144L293.754 389.426C293.688 390.186 294.25 390.879 295.009 390.945C295.042 390.945 295.109 390.945 295.142 390.945V391.011Z" fill="#706F6F"/>
<path d="M332.629 282.739C332.265 282.541 331.836 282.574 331.374 282.838C330.449 283.366 329.689 284.555 329.59 285.645L325.065 330.071C324.966 331.029 324.305 332.119 323.479 332.581L298.542 347.049C296.659 348.139 295.139 350.781 295.106 352.961V353.589L328.632 372.944L359.945 352.003L366.088 301.995L332.662 282.706H332.629V282.739Z" fill="#FFB645"/>
<path d="M328.669 410.369C329.363 410.369 329.99 409.84 330.056 409.114L333.656 372.252L357.669 358.379L361.105 389.593C361.204 390.353 361.864 390.914 362.657 390.815C363.417 390.716 363.978 390.055 363.879 389.263L359.982 353.788L331.014 370.501L327.282 408.783C327.216 409.543 327.777 410.237 328.537 410.303C328.57 410.303 328.636 410.303 328.669 410.303V410.369Z" fill="#2D2856"/>
<path d="M328.67 372.978L362.163 353.655L366.688 303.449C366.787 302.194 365.994 301.599 364.937 302.194C364.012 302.722 363.253 303.911 363.153 305.001L358.628 349.427C358.529 350.385 357.869 351.475 357.043 351.937L332.105 366.405C330.222 367.495 328.703 370.137 328.703 372.317V372.945L328.67 372.978Z" fill="#EB991A"/>
<path d="M294.813 394.248C296.432 395.9 296.696 399.071 296.134 402.209C294.912 404.025 294.252 404.917 292.171 405.512C292.171 405.512 289.594 406.404 287.216 407.791C282.46 412.745 278.034 413.34 276.415 412.745C270.932 410.697 276.812 406.007 278.397 404.851C278.859 404.521 284.97 398.707 284.97 398.707L286.423 396.428L286.258 391.441L294.219 389.096L294.813 394.281V394.248Z" fill="#0B1017"/>
<path d="M278.396 357.982C279.452 370.401 283.35 379.749 286.422 396.462C287.875 397.618 290.848 398.675 293.094 397.915C294.283 397.519 295.274 396.627 295.703 394.91C296.199 380.674 296.067 369.641 292.136 360.459C304.093 355.207 319.881 353.523 329.658 345.364C333.457 342.094 336.297 339.089 337.189 336.116C337.652 334.629 337.619 333.176 336.958 331.69C336.628 330.93 336.132 330.137 335.439 329.345L332.334 327.132L318.924 325.216C317.206 326.108 315.323 327.165 313.308 328.321C298.808 336.578 278.362 350.319 278.429 357.982H278.396Z" fill="#924FC2"/>
<g style="mix-blend-mode:multiply">
<path d="M292.136 397.585C292.136 397.585 292.499 397.717 293.094 397.915C294.283 397.519 295.274 396.627 295.703 394.91C296.199 380.674 296.067 369.641 292.136 360.459C304.093 355.207 319.881 353.523 329.658 345.364C333.457 342.094 336.297 339.089 337.189 336.116L336.958 331.69C336.628 330.93 336.132 330.137 335.439 329.345L332.334 327.132L318.923 325.216C317.206 326.108 315.323 327.165 313.308 328.321C312.284 340.938 299.997 349.856 286.389 358.312C291.508 370.104 292.962 383.382 292.169 397.618L292.136 397.585Z" fill="#A263C7"/>
</g>
<path d="M316.515 406.503C318.134 408.155 318.2 411.127 317.836 414.463C316.614 416.28 314.864 417.337 312.783 417.965C312.783 417.965 305.186 425.198 297.952 424.108C290.719 423.018 297.952 417.832 297.952 417.832L306.276 410.599L307.894 408.353L307.96 403.663L315.921 401.317L316.515 406.503Z" fill="#0B1017"/>
<path d="M296.663 367.132C297.72 379.551 304.788 391.674 307.86 408.354C310.668 410.501 313.112 410.864 315.094 408.618C315.622 408.023 316.151 407.198 316.613 406.174C317.109 391.938 316.118 379.386 312.187 370.171C324.144 364.919 333.591 359.7 343.335 351.542C349.974 345.795 349.577 335.985 344.92 330.634L343.599 330.436H343.335L321.403 334.928C320.213 336.282 318.991 337.669 317.769 339.023C316.151 340.84 314.499 342.69 312.914 344.506C304.887 353.623 297.687 362.211 296.63 367.066L296.663 367.132Z" fill="#924FC2"/>
<g style="mix-blend-mode:multiply">
<path d="M313.741 409.147L315.128 408.618C315.656 408.023 316.185 407.198 316.647 406.174C317.143 391.938 316.152 379.386 312.221 370.171C324.178 364.919 333.625 359.7 343.369 351.542C350.008 345.795 349.612 335.985 344.954 330.634L343.633 330.436L317.836 339.056C316.218 340.873 314.566 342.723 312.981 344.539C315.789 344.969 321.965 345.134 334.781 344.969C330.223 354.614 319.488 362.838 306.375 368.486C312.42 378.825 313.906 393.226 313.741 409.114V409.147Z" fill="#A263C7"/>
</g>
<path d="M229.08 419.88C217.454 426.586 217.454 437.486 229.08 444.224C240.707 450.929 259.6 450.929 271.227 444.224C282.854 437.519 282.854 426.619 271.227 419.88C259.6 413.175 240.707 413.175 229.08 419.88Z" fill="#2D2856"/>
<path d="M229.08 416.875C217.454 423.58 217.454 434.48 229.08 441.218C240.707 447.923 259.6 447.923 271.227 441.218C282.854 434.513 282.854 423.613 271.227 416.875C259.6 410.169 240.707 410.169 229.08 416.875Z" fill="white"/>
<path d="M243.581 425.264C239.948 427.345 239.948 430.747 243.581 432.828C247.215 434.909 253.061 434.909 256.694 432.828C260.328 430.747 260.328 427.345 256.694 425.264C253.061 423.183 247.215 423.183 243.581 425.264Z" fill="#2D2856"/>
<path d="M243.581 422.918C239.948 424.999 239.948 428.401 243.581 430.482C247.215 432.563 253.061 432.563 256.694 430.482C260.328 428.401 260.328 424.999 256.694 422.918C253.061 420.837 247.215 420.837 243.581 422.918Z" fill="#C0C7A9"/>
<path d="M245.102 422.026C242.328 423.645 242.328 426.221 245.102 427.84C247.877 429.458 252.402 429.458 255.177 427.84C257.951 426.221 257.951 423.645 255.177 422.026C252.402 420.408 247.877 420.408 245.102 422.026Z" fill="#2D2856"/>
<path d="M257.257 378.46H243.021V425.264H257.257V378.46Z" fill="#2D2856"/>
<path d="M207.975 349.36C184.689 362.803 184.689 384.603 207.975 398.079C231.262 411.523 269.048 411.523 292.335 398.079C315.621 384.636 315.621 362.836 292.335 349.36C269.048 335.917 231.262 335.917 207.975 349.36Z" fill="#2D2856"/>
<path d="M207.975 345.926C184.689 359.37 184.689 381.169 207.975 394.646C231.262 408.089 269.048 408.089 292.335 394.646C315.621 381.202 315.621 359.403 292.335 345.926C269.048 332.483 231.262 332.483 207.975 345.926Z" fill="white"/>
<path d="M282.756 330.004C284.506 329.178 285.762 329.905 286.554 331.92C286.819 331.788 287.05 331.623 287.314 331.491C293.986 327.692 300.163 322.705 306.406 316.825L309.775 305.099L314.002 290.467L316.414 286.008L312.219 282.804C305.976 281.879 303.928 284.786 302.508 291.59L296.761 312.102C291.971 316.165 287.314 322.341 282.789 329.971L282.756 330.004Z" fill="white"/>
<g style="mix-blend-mode:multiply">
<path d="M287.282 331.492C293.954 327.693 300.131 322.706 306.374 316.826L309.743 305.101L304.722 295.225C303.5 303.416 300.065 309.196 299.768 316.562L287.282 331.492Z" fill="#D6EEEB"/>
</g>
<path d="M326.224 273.754C338.676 277.784 336.001 289.542 332.665 298.725L323.879 290.467L326.224 273.754Z" fill="#0B1017"/>
<path d="M302.475 312.862C302.475 312.862 302.475 313.027 302.475 313.093C302.772 320.261 312.516 319.567 312.516 319.567L316.447 328.122C317.438 340.541 338.907 343.679 344.919 330.665C342.034 326.57 340.471 323.112 340.228 320.294C340.559 319.171 340.856 318.081 341.12 317.024C343.069 308.7 342.144 302.358 338.544 295.224C335.01 290.666 327.115 286.075 322.128 284.225L307.561 283.895L304.655 294.464C305.448 307.742 302.343 307.28 302.442 312.862H302.475Z" fill="white"/>
<path d="M324.571 281.779C325.364 284.488 327.478 288.683 328.006 291.292C328.601 294.496 322.722 299.45 318.758 299.153C315.95 298.592 315.257 295.024 314.86 291.721L324.571 281.779Z" fill="#FFAE80"/>
<g style="mix-blend-mode:multiply">
<path d="M322.559 283.828C322.559 283.828 324.871 302.953 315.689 301.367C309.71 300.343 310.965 290.467 310.965 290.467L322.559 283.828Z" fill="#D6EEEB"/>
</g>
<path d="M316.742 266.356C307.527 267.644 304.686 273.028 305.611 280.361C305.71 286.505 310.83 294.63 314.397 294.498C319.484 294.762 321.994 288.85 326.321 282.475C329.69 272.037 325.297 265.167 316.709 266.356H316.742Z" fill="#FFAE80"/>
<path d="M305.746 280.558C307.662 282.606 310.733 283.762 314.532 284.654C317.769 285.975 320.874 285.843 322.129 287.66L325.861 286.107C329.627 281.78 329.99 269.427 323.549 266.818C313.211 262.623 300.923 272.994 305.713 280.558H305.746Z" fill="#0B1017"/>
<path d="M322.291 285.743C322.853 283.497 324.438 282.011 325.76 283.299C326.387 283.893 326.354 285.017 325.76 286.437C325.297 287.527 324.603 288.055 323.745 288.187C322.49 288.386 321.829 287.494 322.291 285.743Z" fill="#FFAE80"/>
<g style="mix-blend-mode:multiply">
<path d="M302.475 313.093C302.772 320.261 312.516 319.567 312.516 319.567L316.446 328.122C317.437 340.541 338.907 343.679 344.918 330.665C342.034 326.569 340.47 323.112 340.228 320.294C340.558 319.171 340.856 318.081 341.12 317.024L332.466 307.742L327.478 318.972C323.416 327.725 313.903 323.96 313.143 316.925C311.756 319.138 304.489 318.609 302.508 313.06L302.475 313.093Z" fill="#D6EEEB"/>
</g>
<path d="M286.29 368.221L313.243 352.697L295.307 341.896L276.051 332.516L248.239 346.454L269.048 356.76L286.29 368.221Z" fill="#FF4555"/>
<path d="M271.096 358.675L269.147 358.015L267.231 356.528L267.331 355.802L269.048 356.76L270.898 357.85L271.096 358.675Z" fill="#40274F"/>
<path d="M267.364 356.827L248.305 347.479L248.239 346.455L267.331 355.803L267.364 356.827Z" fill="#40274F"/>
<path d="M270.863 358.841L286.255 369.212L286.288 368.221L270.896 357.85L270.863 358.841Z" fill="#40274F"/>
<path d="M270.866 358.84C270.866 359.897 267.364 357.882 267.364 356.825V355.934C267.331 357.123 270.899 359.071 270.899 357.849V358.84H270.866Z" fill="#40274F"/>
<path d="M286.256 369.211L286.289 368.221L313.242 352.696L313.208 353.654L286.256 369.211Z" fill="#40274F"/>
<path d="M250.849 346.356L268.388 355.042L293.623 342.557L276.084 333.87L250.849 346.356Z" fill="white"/>
<path d="M286.291 330.963C286.82 332.35 286.919 334.035 286.985 335.158L286.39 337.305L285.102 339.551C284.409 340.74 283.484 340.112 283.979 338.857L284.904 336.875V335.125L281.997 338.262L279.52 342.127C278.661 342.986 278.364 342.622 278.298 341.731L277.439 342.788C276.713 343.679 275.821 342.854 276.118 342.127L275.788 342.391C275.094 343.25 274.169 342.523 274.698 341.466L275.094 340.74C274.235 341.334 274.268 340.343 275.028 339.154L277.34 334.86C277.803 333.902 281.205 330.434 282.823 329.807C284.177 329.245 285.3 329.675 286.258 330.864L286.291 330.963Z" fill="#FFAE80"/>
<path d="M305.91 345.363C305.151 347.774 303.73 348.931 301.22 350.78L296.53 353.852C295.11 354.281 295.044 353.654 295.44 352.663L293.491 354.017C292.17 354.81 291.113 353.951 291.741 352.96L290.485 353.489C289.263 353.819 288.768 353.125 289.957 351.771L290.717 351.044C289.627 351.573 288.504 351.044 289.924 349.591C292.566 346.718 294.779 344.571 297.455 342.556C299.569 341.532 301.121 341.202 303.532 340.937L307.661 339.583L309.742 343.381L305.944 345.396L305.91 345.363Z" fill="#FFAE80"/>
<path d="M338.578 295.224C342.806 298.725 343.929 302.259 343.169 309.691C341.386 326.734 334.416 337.7 334.416 337.7C327.117 341.697 316.844 343.778 305.911 345.363C306.043 343.183 305.449 341.565 303.5 340.904C313.31 336.214 324.078 329.608 328.074 329.938C328.306 321.284 329.693 314.381 331.609 306.685C333.029 301.235 335.077 296.941 338.611 295.224H338.578Z" fill="white"/>
<path d="M226.306 348.833V382.854L241.202 374.233V340.245L226.306 348.833Z" fill="#DB2535"/>
<path d="M215.539 376.611L226.307 382.821V348.833L215.539 342.59V376.611Z" fill="#9E2E3B"/>
<path d="M215.539 342.59L216.365 343.085L226.307 348.833L241.204 340.245L231.261 334.497L230.403 334.002L215.539 342.59Z" fill="#DB2535"/>
<path d="M226.306 365.05V382.82L241.202 374.233V355.604C239.253 354.976 236.842 355.339 234.167 356.859C231.128 358.609 228.354 361.582 226.306 365.017V365.05Z" fill="#F9A733"/>
<path d="M230.864 364.819C230.864 367.131 232.483 368.056 234.498 366.9C236.512 365.744 238.131 362.937 238.131 360.624C238.131 358.312 236.512 357.388 234.498 358.544C232.483 359.7 230.864 362.507 230.864 364.819Z" fill="white"/>
<path d="M232.384 363.927C232.384 365.282 233.342 365.843 234.498 365.149C235.654 364.489 236.612 362.837 236.612 361.483C236.612 360.129 235.654 359.567 234.498 360.261C233.342 360.922 232.384 362.573 232.384 363.927Z" fill="#E94E1B"/>
<path d="M223.601 379.748L224.327 380.178V360.062L223.601 359.633V379.748Z" fill="white"/>
<path d="M222.114 378.89L222.808 379.32V362.111L222.114 361.682V378.89Z" fill="white"/>
<path d="M220.594 378.03L221.32 378.427V365.545L220.594 365.148V378.03Z" fill="white"/>
<path d="M219.107 377.171L219.801 377.568V361.977L219.107 361.581V377.171Z" fill="white"/>
<path d="M228.421 373.902L239.09 367.758V365.611L228.421 371.755V373.902Z" fill="white"/>
<path d="M229.347 375.091L238.166 370.004V368.914L229.347 374.001V375.091Z" fill="white"/>
<path d="M229.347 376.808L238.166 371.722V370.632L229.347 375.718V376.808Z" fill="white"/>
<path d="M231.131 377.469L236.35 374.463V373.406L231.131 376.412V377.469Z" fill="white"/>
<path d="M228.29 351.608C228.29 352.466 228.885 352.797 229.644 352.367L237.869 347.611C238.595 347.182 239.223 346.158 239.223 345.299C239.223 344.44 238.628 344.11 237.869 344.539L229.644 349.296C228.918 349.725 228.29 350.749 228.29 351.608Z" fill="white"/>
<path d="M248.601 355.042V389.063L263.497 380.442V346.454L248.601 355.042Z" fill="#DB2535"/>
<path d="M237.834 382.821L248.602 389.031V355.043L237.834 348.8V382.821Z" fill="#9E2E3B"/>
<path d="M237.834 348.799L238.693 349.294L248.602 355.041L263.498 346.454L253.556 340.706L252.698 340.211L237.834 348.799Z" fill="#DB2535"/>
<path d="M248.602 371.259V389.029L263.498 380.442V361.813C261.549 361.185 259.138 361.548 256.463 363.068C253.424 364.818 250.649 367.791 248.602 371.226V371.259Z" fill="#F9A733"/>
<path d="M253.195 371.028C253.195 373.34 254.814 374.265 256.829 373.109C258.843 371.953 260.462 369.146 260.462 366.833C260.462 364.521 258.843 363.597 256.829 364.753C254.814 365.909 253.195 368.716 253.195 371.028Z" fill="white"/>
<path d="M254.679 370.136C254.679 371.491 255.637 372.052 256.793 371.358C257.949 370.698 258.907 369.046 258.907 367.692C258.907 366.338 257.949 365.776 256.793 366.47C255.637 367.164 254.679 368.782 254.679 370.136Z" fill="#E94E1B"/>
<path d="M245.896 385.957L246.622 386.387V366.271L245.896 365.842V385.957Z" fill="white"/>
<path d="M244.408 385.099L245.102 385.529V368.32L244.408 367.891V385.099Z" fill="white"/>
<path d="M242.889 384.239L243.615 384.636V371.754L242.889 371.357V384.239Z" fill="white"/>
<path d="M241.402 383.38L242.096 383.777V368.186L241.402 367.79V383.38Z" fill="white"/>
<path d="M250.718 380.111L261.387 373.967V371.82L250.718 377.964V380.111Z" fill="white"/>
<path d="M251.644 381.3L260.463 376.213V375.123L251.644 380.21V381.3Z" fill="white"/>
<path d="M251.644 383.017L260.463 377.931V376.841L251.644 381.927V383.017Z" fill="white"/>
<path d="M253.428 383.678L258.68 380.672V379.615L253.428 382.621V383.678Z" fill="white"/>
<path d="M250.585 357.817C250.585 358.675 251.179 359.006 251.939 358.576L260.164 353.82C260.89 353.391 261.518 352.367 261.518 351.508C261.518 350.649 260.923 350.319 260.164 350.748L251.939 355.504C251.213 355.934 250.585 356.958 250.585 357.817Z" fill="white"/>
<path d="M269.147 357.221V391.242L284.044 382.654V348.633L269.147 357.221Z" fill="#DB2535"/>
<path d="M258.381 385.034L269.149 391.243V357.222L258.381 351.013V385.034Z" fill="#9E2E3B"/>
<path d="M258.381 351.012L259.24 351.507L269.149 357.221L284.045 348.634L274.103 342.919L273.244 342.424L258.381 351.012Z" fill="#DB2535"/>
<path d="M269.148 373.472V391.242L284.045 382.655V364.025C282.096 363.398 279.685 363.761 277.01 365.281C273.971 367.031 271.196 370.004 269.148 373.439V373.472Z" fill="#F9A733"/>
<path d="M273.741 373.208C273.741 375.52 275.36 376.445 277.375 375.289C279.389 374.133 281.008 371.325 281.008 369.013C281.008 366.701 279.389 365.776 277.375 366.932C275.36 368.088 273.741 370.896 273.741 373.208Z" fill="white"/>
<path d="M275.225 372.349C275.225 373.703 276.182 374.265 277.339 373.571C278.495 372.911 279.452 371.259 279.452 369.905C279.452 368.551 278.495 367.989 277.339 368.683C276.182 369.343 275.225 370.995 275.225 372.349Z" fill="#E94E1B"/>
<path d="M266.441 388.169L267.168 388.599V368.45L266.441 368.054V388.169Z" fill="white"/>
<path d="M264.955 387.31L265.682 387.707V370.498L264.955 370.102V387.31Z" fill="white"/>
<path d="M263.436 386.452L264.162 386.848V373.967L263.436 373.537V386.452Z" fill="white"/>
<path d="M261.948 385.56L262.675 385.989V370.399L261.948 369.97V385.56Z" fill="white"/>
<path d="M271.264 382.324L281.932 376.147V374.033L271.264 380.177V382.324Z" fill="white"/>
<path d="M272.189 383.48L281.009 378.393V377.336L272.189 382.423V383.48Z" fill="white"/>
<path d="M272.189 385.198L281.009 380.112V379.055L272.189 384.141V385.198Z" fill="white"/>
<path d="M274.006 385.892L279.225 382.886V381.796L274.006 384.835V385.892Z" fill="white"/>
<path d="M271.132 360.03C271.132 360.888 271.726 361.219 272.486 360.789L280.711 356.033C281.437 355.603 282.065 354.58 282.065 353.721C282.065 352.862 281.47 352.532 280.711 352.961L272.486 357.717C271.759 358.147 271.132 359.171 271.132 360.03Z" fill="white"/>
<path d="M158.329 440.492L173.754 413.737L207.841 433.423L178.775 452.317L158.329 440.492Z" fill="#FFB645"/>
<path d="M175.176 493.241C175.869 493.241 176.497 492.712 176.563 491.986L180.163 455.124L204.176 441.251L207.611 472.465C207.71 473.225 208.371 473.786 209.164 473.687C209.924 473.588 210.485 472.927 210.386 472.135L206.488 436.66L177.521 453.373L173.788 491.655C173.722 492.415 174.284 493.109 175.044 493.175C175.077 493.175 175.143 493.175 175.176 493.175V493.241Z" fill="#2D2856"/>
<path d="M180.624 448.056L205.562 433.721C207.445 432.631 208.964 433.523 208.964 435.703V436.33L175.67 455.554L179.303 447.957C179.601 448.287 180.063 448.353 180.624 448.056Z" fill="#EB991A"/>
<path d="M137.651 471.573C138.345 471.573 138.973 471.044 139.039 470.318L142.639 433.456L166.652 419.583L170.087 450.797C170.186 451.557 170.847 452.118 171.639 452.019C172.399 451.92 172.961 451.259 172.862 450.467L168.964 414.992L139.996 431.705L136.264 469.987C136.198 470.747 136.76 471.441 137.519 471.507C137.552 471.507 137.618 471.507 137.651 471.507V471.573Z" fill="#2D2856"/>
<path d="M136.496 385.562C136.166 385.364 135.737 385.397 135.241 385.695C134.151 386.322 133.358 387.842 133.458 388.965L137.95 433.952L171.442 414.629V414.001C171.442 411.821 169.923 410.93 168.04 412.02L143.102 426.355C142.31 426.817 141.616 426.52 141.517 425.661L136.992 386.454C136.959 386.025 136.761 385.695 136.496 385.562Z" fill="#C43E3D"/>
<path d="M174.052 407.263L136.496 385.562C136.166 385.364 135.737 385.397 135.241 385.695C134.151 386.322 133.358 387.842 133.458 388.965L137.95 433.952L175.505 455.619L174.052 407.23V407.263Z" fill="#FFB645"/>
<path d="M171.013 410.666C170.913 409.543 171.706 408.023 172.763 407.396C173.688 406.867 174.448 407.197 174.547 408.155L179.072 447.362C179.072 447.626 179.204 447.825 179.336 447.957L175.703 455.554L175.505 455.653L170.979 410.666H171.013Z" fill="#EB991A"/>
<path d="M381.551 366.998L433.871 397.221V467.047L381.551 436.857V366.998Z" fill="#EB991A"/>
<path d="M493.028 302.655L545.315 332.845L433.871 397.221L381.551 366.998L493.028 302.655Z" fill="white"/>
<path d="M545.314 402.705V332.846L433.87 397.222V467.047L545.314 402.705Z" fill="#FFB645"/>
<path d="M538.838 337.14L532.364 333.407V154.152L538.838 157.885V337.14Z" fill="#EB991A"/>
<path d="M545.312 154.152L538.838 157.885L532.364 154.152L538.838 150.42L545.312 154.152Z" fill="#9D9D9C"/>
<path d="M538.838 337.14L545.312 333.407V154.152L538.838 157.885V337.14Z" fill="#FFB645"/>
<path d="M243.581 577.962L237.107 574.197V325.645L243.581 329.41V577.962Z" fill="#EB991A"/>
<path d="M250.055 325.645L243.581 329.41L237.107 325.645L243.581 321.912L250.055 325.645Z" fill="#9D9D9C"/>
<path d="M243.581 577.962L250.055 574.197V325.645L243.581 329.41V577.962Z" fill="#FFB645"/>
<path d="M362.557 47.7959L60.793 223.054L243.549 329.411L545.28 154.153L362.557 47.7959ZM69.0175 223.054L362.557 52.5522L537.122 154.153L243.582 324.655L69.0175 223.054Z" fill="#808080"/>
<path d="M362.557 0L60.793 175.258L243.549 281.616L545.28 106.357L362.557 0ZM69.0175 175.258L362.557 4.75635L537.122 106.357L243.582 276.859L69.0175 175.258Z" fill="white"/>
<path d="M545.313 154.153L243.582 329.411V281.617L545.313 106.358V154.153Z" fill="#FFB645"/>
<path d="M519.615 152.997V138.695L306.107 262.724V277.026L519.615 152.997Z" fill="white"/>
<path d="M362.558 52.5506L110.141 199.139L69.0186 175.258L362.558 4.75586V52.5506Z" fill="#FFB645"/>
<path d="M60.793 223.053L243.582 329.411V281.616L60.793 175.259V223.053Z" fill="#EB991A"/>
<path d="M362.559 52.5506L495.968 130.271L537.123 106.357L362.559 4.75586V52.5506Z" fill="#EB991A"/>
<path d="M513.604 345.133L520.144 344.505L519.22 342.655L515.058 339.518L513.604 345.133Z" fill="#FFD88F"/>
<path d="M524.503 355.834L510.598 333.076L496.031 340.145L509.904 362.902L524.503 355.834Z" fill="#291933"/>
<path d="M509.178 360.194L522.39 353.786L510.301 334.034L497.089 340.442L509.178 360.194Z" fill="white"/>
<path d="M510.135 338.955L512.777 338.46C513.702 340.474 515.254 341.432 516.939 341.829L518.326 342.291C518.855 340.97 519.284 340.408 519.515 340.078C519.284 338.261 518.227 336.61 517.203 336.313L513.174 335.586L508.285 337.337C508.153 338.427 508.582 338.922 510.168 338.922L510.135 338.955Z" fill="#FFAE80"/>
<path d="M508.581 359.401C508.581 359.401 508.779 359.401 508.878 359.401C509.34 359.302 509.604 358.873 509.505 358.411L505.211 338.361C505.112 337.899 504.683 337.635 504.221 337.734C503.758 337.833 503.494 338.262 503.593 338.725L507.887 358.807C507.953 359.17 508.25 359.401 508.581 359.467V359.401Z" fill="#291933"/>
<path d="M499.531 349.624C499.432 350.417 499.927 350.946 499.927 351.507C499.927 351.738 499.861 352.135 499.828 352.498C499.828 352.762 499.795 352.993 499.795 353.159C499.828 354.447 502.768 356.363 503.726 356.957L507.524 358.774L512.049 362.803L512.974 361.251L515.187 357.882L511.818 353.786C512.082 351.573 512.115 349.724 511.521 348.039L509.77 345.925L506.533 344.34L506.863 345.727C506.863 345.727 505.509 344.802 504.221 344.141C503.593 343.811 502.503 343.646 502.041 344.174C501.81 344.439 501.909 345.033 501.744 345.33C501.546 345.661 500.72 346.024 500.555 346.387C500.389 346.751 500.654 347.643 500.522 347.973C500.356 348.402 499.729 348.766 499.63 349.591L499.531 349.624Z" fill="#FFAE80"/>
<g style="mix-blend-mode:multiply" opacity="0.5">
<path d="M506.598 344.769L509.868 347.543L506.796 345.726L506.598 344.769Z" fill="#FFD88F"/>
</g>
<g style="mix-blend-mode:multiply" opacity="0.5">
<path d="M499.829 352.498C499.829 352.762 499.796 352.993 499.796 353.159C499.829 354.447 502.769 356.363 503.727 356.957L507.525 358.774L512.05 362.803L512.975 361.251C511.026 360.029 509.276 357.981 508.252 356.495C504.916 356.495 501.051 355.107 499.829 352.498Z" fill="#FFD88F"/>
</g>
<path d="M525.394 362.376C533.388 366.736 562.157 369.576 564.601 360.856C571.901 336.876 565.13 323.334 559.514 320.725C559.514 320.725 522.752 363.168 525.427 362.376H525.394Z" fill="white"/>
<path d="M514.957 482.539C514.957 479.302 517.467 478.08 521.134 477.684C524.37 477.684 528.697 479.137 534.412 480.425L540.919 483.992C542.141 487.328 542.108 490.301 541.381 493.043C539.564 494.628 537.219 495.586 535.072 495.024L527.773 491.92L527.244 490.863C521.431 490.235 514.924 487.593 514.924 482.539H514.957Z" fill="#0B1017"/>
<path d="M538.706 469.559C538.706 466.916 541.084 466.454 544.585 466.189C550.96 466.189 551.225 469.393 557.104 469.228L562.851 472.729C564.04 476.099 563.776 479.699 563.115 482.407C561.365 483.927 558.722 484.257 556.708 483.96L550.795 480.492L550.3 479.435C544.751 478.609 538.739 474.48 538.739 469.559H538.706Z" fill="#0B1017"/>
<path d="M559.583 379.551L538.345 388.436C538.312 392.201 538.411 395.736 538.774 398.378C540.128 408.155 544.059 422.952 544.059 422.952C546.9 435.537 548.056 451.127 548.716 467.576C548.815 473.489 557.634 478.674 563.283 473.092C564.901 453.043 564.901 433.522 560.178 420.64C562.424 410.434 560.343 398.873 559.715 387.148C559.847 385.628 559.022 379.881 559.616 379.617L559.583 379.551Z" fill="#201C3D"/>
<path d="M520.835 409.807C521.628 419.584 524.733 434.349 524.733 434.349L526.913 478.906C526.484 481.846 527.706 484.257 529.687 485.711C532.759 487.957 537.714 487.924 541.149 484.125C543.89 464.109 544.98 444.885 540.984 432.003C543.824 421.83 543.659 412.351 543.692 400.625C550.232 397.949 560.339 394.151 559.91 383.845C559.745 379.915 559.183 376.083 558.193 372.384C558.027 371.69 557.796 370.964 557.598 370.27C557.433 369.742 557.268 369.213 557.069 368.685C553.469 375.918 541.843 380.41 529.225 378.825C528.664 378.759 528.135 378.66 527.574 378.561C526.219 378.329 524.898 378.032 523.511 377.702C523.511 377.702 523.412 378.428 523.214 379.651C523.081 380.675 522.883 381.996 522.685 383.581C521.727 390.881 520.34 403.201 520.868 409.774L520.835 409.807Z" fill="#2D2856"/>
<g style="mix-blend-mode:multiply">
<path d="M520.838 409.806C521.63 419.583 524.768 434.347 524.768 434.347L526.915 478.905C526.486 481.845 527.708 484.256 529.723 485.709C527.774 466.948 526.915 449.376 529.723 435.801C525.528 420.375 525.264 402.638 530.086 390.747C530.02 385.991 527.873 383.249 528.897 379.781C527.113 379.22 525.33 378.559 523.513 377.733C523.513 377.733 520.078 400.062 520.871 409.839L520.838 409.806Z" fill="#A263C7"/>
</g>
<path d="M559.12 369.279C558.559 371.525 558.559 373.903 559.12 376.149C559.649 378.263 559.979 380.212 559.847 382.425C555.652 388.37 544.917 393.655 533.885 391.805C533.291 391.574 531.804 391.178 530.054 390.715C529.955 390.715 529.889 390.682 529.79 390.649C528.534 390.319 527.213 389.923 525.925 389.592C525.76 389.559 525.595 389.493 525.43 389.46C524.967 389.328 524.571 389.196 524.174 389.097C523.646 388.932 523.151 388.767 522.721 388.634C522.523 388.568 522.358 388.502 522.16 388.436C522.027 388.37 521.895 388.337 521.73 388.271C521.664 388.238 522.325 379.089 522.226 379.023C521.499 371.062 521.565 367.66 521.07 357.652C521.07 357.289 521.07 356.925 521.037 356.562C520.971 355.538 521.136 354.415 520.871 353.292C517.469 339.618 519.748 338.164 523.382 335.885C535.107 328.453 544.29 318.941 559.484 320.691C571.044 331.756 559.319 368.189 559.087 369.246L559.12 369.279Z" fill="#50A4D9"/>
<path d="M529.625 316.067C528.898 315.241 530.021 313.325 530.847 313.028C532.003 312.665 532.63 314.349 532.763 315.241C532.928 316.463 532.763 317.421 532.069 318.445C531.276 319.601 530.021 318.445 529.658 317.52C529.393 316.86 530.087 316.562 529.625 316.034V316.067Z" fill="#FFD88F"/>
<path d="M547.096 321.716L541.911 312.731L527.807 319.668L533.257 329.775C538.376 329.775 548.847 325.052 547.096 321.716Z" fill="#FFAE80"/>
<path d="M532.429 323.994C532.429 323.994 530.712 327.363 527.772 324.688C524.833 322.012 520.043 313.226 521.662 306.191C523.247 299.122 535.105 308.701 535.105 308.701L532.429 323.961V323.994Z" fill="#FFAE80"/>
<path d="M544.884 318.18C544.884 318.18 539.038 320.063 534.843 322.772C533.786 323.465 532.366 323.399 531.375 322.607L529.558 321.219L528.27 317.289L525.43 316.133L525.628 313.193C524.042 312.764 522.688 311.607 521.4 310.121C517.601 303.548 525.562 296.281 534.216 296.876C545.248 297.471 547.989 309.328 544.917 318.114L544.884 318.18Z" fill="#0B1017"/>
<path d="M526.418 317.19C526.352 316.761 526.286 316.365 526.319 315.935C526.385 315.506 526.584 315.109 526.914 314.878C527.575 314.449 528.532 314.812 528.962 315.473C529.391 316.133 529.457 316.959 529.523 317.752C529.556 318.313 529.589 318.875 529.655 319.469C529.688 319.932 529.721 320.427 529.556 320.89C529.391 321.352 528.995 321.748 528.499 321.748C528.136 321.748 527.839 321.517 527.608 321.253C527.409 320.989 527.277 320.625 527.178 320.295C526.848 319.304 526.584 318.247 526.385 317.223L526.418 317.19Z" fill="#FFAE80"/>
<g style="mix-blend-mode:multiply" opacity="0.5">
<path d="M530.085 390.716C530.085 390.716 529.92 390.683 529.821 390.65C528.499 390.287 527.178 389.956 525.956 389.593C525.791 389.56 525.626 389.494 525.461 389.461C524.998 389.329 524.602 389.197 524.205 389.097C523.677 388.932 523.181 388.767 522.752 388.635C522.554 388.569 522.389 388.503 522.191 388.437C522.058 388.371 521.926 388.338 521.761 388.272C521.695 388.239 522.356 379.089 522.257 379.023C521.53 371.063 521.596 367.661 521.101 357.653L531.142 349.131C534.28 363.466 534.379 374.3 530.085 390.716Z" fill="#3F81AB"/>
</g>
<path d="M520.474 338.263C515.487 341.335 515.091 344.869 515.091 352.598L515.421 357.156L511.754 353.754C508.055 353.523 506.371 355.406 506.734 359.997C508.055 367.66 511.854 376.149 518.03 378.329C521.465 379.551 525.033 377.998 526.783 371.26L530.978 354.018C531.606 342.524 529.261 336.347 520.408 338.23L520.474 338.263Z" fill="white"/>
<path d="M547.461 321.913L546.04 319.898C545.115 322.144 540.392 325.051 531.903 327.297L532.068 329.973C539.765 331.327 549.211 325.249 547.461 321.88V321.913Z" fill="white"/>
<path d="M453.62 289.476L445.296 266.487C443.942 257.437 438.591 255.653 434.099 254.134L430.961 270.153L434.033 276.429L443.413 295.587C444.735 298.493 446.188 301.466 447.773 304.406L456.758 296.908C455.767 294.464 454.71 291.986 453.62 289.509V289.476Z" fill="white"/>
<g style="mix-blend-mode:multiply">
<path d="M444.142 288.617L440.641 266.486L434.035 276.395L443.416 295.553C444.737 298.46 446.19 301.432 447.776 304.372L449.758 302.72C447.379 297.733 445.464 292.977 444.175 288.617H444.142Z" fill="#D6EEEB"/>
</g>
<path d="M441.796 271.375C441.796 293.505 427.428 307.741 427.428 308.402C426.107 309.393 424.819 310.285 423.597 311.044C401.632 324.983 393.605 305.661 393.605 305.661C394.629 298.394 391.657 293.109 392.813 283.134C392.846 282.705 392.912 282.308 392.978 281.879C394.068 272.201 400.542 264.241 410.021 261.829C412.565 261.169 414.943 259.947 416.859 258.13C421.78 253.473 425.711 252.746 432.779 253.572C438.89 256.974 441.565 263.151 441.763 271.309L441.796 271.375Z" fill="white"/>
<g style="mix-blend-mode:multiply">
<path d="M423.597 311.044C401.632 324.983 393.605 305.66 393.605 305.66C394.629 298.394 391.657 293.109 392.813 283.134C393.903 275.867 398.758 274.975 405.86 277.981L414.778 296.544L423.564 311.044H423.597Z" fill="#D6EEEB"/>
</g>
<path d="M426.307 271.936L427.529 275.834L429.775 275.008V270.615L427.529 269.096L426.307 271.936Z" fill="#A1241D"/>
<path d="M427.527 275.835C428.155 284.026 428.155 299.451 427.527 308.105L431.16 311.573L433.671 305.892C433.175 297.436 431.557 282.969 429.74 275.009L427.494 275.835H427.527Z" fill="#FF4555"/>
<path d="M421.318 253.143C421.053 253.143 416.759 258.46 416.759 258.46C411.012 261.697 418.378 273.786 426.206 272.531L432.68 268.039L421.285 253.143H421.318Z" fill="#FFAE80"/>
<path d="M418.081 256.842C417.024 257.601 415.174 258.857 413.556 260.376C413.556 260.376 416.694 275.041 426.305 275.834C426.999 273.291 428.023 271.276 428.023 271.276C422.077 270.384 418.081 261.334 418.081 256.842Z" fill="#A1D4CD"/>
<path d="M428.055 271.276L431.589 274.645C431.589 274.645 434.958 260.839 431.985 257.932C429.013 255.025 428.055 271.276 428.055 271.276Z" fill="#A1D4CD"/>
<g style="mix-blend-mode:multiply">
<path d="M436.213 264.075C436.213 269.856 434.628 279.897 430.697 279.203C425.28 280.194 423.133 264.075 425.148 259.814L436.18 264.075H436.213Z" fill="#D6EEEB"/>
</g>
<path d="M430.897 238.609C423.861 238.675 419.865 241.978 419.601 249.311C419.799 257.007 420.195 261.664 423.895 266.916C426.207 269.823 429.345 271.937 432.945 271.739C437.206 271.507 443.514 261.268 444.142 253.869C445.166 246.371 438.791 240.657 430.897 238.609Z" fill="#FFAE80"/>
<path d="M443.249 259.287C441.664 263.019 432.349 262.359 428.253 257.767L427.791 260.509L424.026 257.371L420.756 261.632L419.566 259.947C416.594 253.969 416.726 244.126 425.215 239.171C436.577 234.613 450.648 247.825 443.216 259.254L443.249 259.287Z" fill="#0B1017"/>
<path d="M423.004 260.575C422.541 259.815 422.178 258.99 422.079 258.131C421.98 257.272 422.244 256.347 422.905 255.753C423.565 255.191 424.655 255.059 425.349 255.621C425.844 256.017 426.042 256.645 426.042 257.239C426.042 257.834 425.877 258.428 425.712 259.023C425.547 259.551 425.415 260.08 425.25 260.608C425.151 260.972 425.018 261.368 424.655 261.533C424.358 261.698 423.928 261.599 423.664 261.401C423.367 261.203 423.169 260.872 423.004 260.575Z" fill="#FFAE80"/>
<path d="M435.322 343.447L456.098 331.457L485.693 348.567L464.917 360.557L435.322 343.447Z" fill="#DCE1CB"/>
<path d="M464.785 357.022L479.781 348.368L480.706 348.864L465.677 357.551L464.785 357.022Z" fill="#1D1D1B"/>
<path d="M462.308 355.602L477.336 346.948L477.898 347.246L462.869 355.932L462.308 355.602Z" fill="#1D1D1B"/>
<path d="M460.82 354.744L475.849 346.09L476.411 346.387L461.382 355.074L460.82 354.744Z" fill="#1D1D1B"/>
<path d="M459.334 353.884L474.363 345.23L474.924 345.528L459.895 354.215L459.334 353.884Z" fill="#1D1D1B"/>
<path d="M456.396 352.167L471.391 343.513L471.953 343.843L456.924 352.497L456.396 352.167Z" fill="#1D1D1B"/>
<path d="M454.908 351.308L469.904 342.654L470.465 342.985L455.437 351.639L454.908 351.308Z" fill="#1D1D1B"/>
<path d="M462.672 345.098L468.419 341.795L468.981 342.125L463.233 345.428L462.672 345.098Z" fill="#1D1D1B"/>
<path d="M451.938 349.591L466.933 340.938L467.495 341.268L452.466 349.922L451.938 349.591Z" fill="#1D1D1B"/>
<path d="M450.45 348.764L465.446 340.077L466.007 340.407L451.012 349.061L450.45 348.764Z" fill="#1D1D1B"/>
<path d="M452.467 345.858L463.961 339.219L464.523 339.549L453.028 346.188L452.467 345.858Z" fill="#1D1D1B"/>
<path d="M452.828 340.507L459.533 336.643L460.062 336.973L453.39 340.837L452.828 340.507Z" fill="#1D1D1B"/>
<path d="M451.341 339.648L458.046 335.783L458.574 336.114L451.902 339.978L451.341 339.648Z" fill="#1D1D1B"/>
<path d="M452.831 342.424C452.831 342.424 452.798 342.622 452.798 342.721C452.798 342.985 452.897 343.249 453.062 343.514C453.161 343.712 453.26 344.042 453.657 344.141C453.789 343.976 453.723 343.877 453.657 343.745C453.558 343.547 453.459 343.315 453.36 343.117C453.227 342.886 453.095 342.655 452.93 342.424C453.029 342.06 453.36 341.697 453.921 341.499C453.327 341.664 452.996 341.994 452.864 342.358C452.798 342.258 452.699 342.159 452.6 342.027C451.939 341.301 451.08 340.64 450.816 339.814C450.717 339.451 450.75 339.054 451.014 338.724C451.246 338.427 451.774 338.064 452.435 338.13C453.194 338.229 453.227 338.856 453.095 339.187C452.963 339.55 452.633 339.847 452.303 340.144C452.996 339.649 453.657 338.889 452.963 338.262C452.666 338.031 452.17 337.998 451.741 338.097C451.279 338.229 450.981 338.526 450.816 338.823C450.387 339.55 450.882 340.31 451.477 340.97C451.84 341.367 452.236 341.73 452.567 342.126C452.666 342.225 452.732 342.324 452.798 342.424H452.831ZM453.393 343.448C453.492 343.646 453.69 343.877 453.591 344.108C453.393 344.042 453.327 343.877 453.26 343.778C453.194 343.679 453.128 343.58 453.095 343.448C452.996 343.216 452.897 342.985 452.897 342.754C452.897 342.688 452.897 342.622 452.897 342.556C453.095 342.853 453.227 343.15 453.393 343.448Z" fill="#1D71B8"/>
<path d="M447.05 345.165C448.107 344.934 448.669 344.306 448.371 343.679C448.206 343.679 448.107 343.679 448.008 343.679C448.107 343.58 448.107 343.48 448.074 343.414C448.074 343.282 448.074 343.15 448.041 343.051C448.239 343.15 448.437 343.282 448.668 343.348C448.834 343.381 448.966 343.348 448.999 343.249C449.065 343.15 448.999 342.985 448.933 342.853C449.131 342.952 449.428 343.084 449.626 342.952C449.825 342.82 449.725 342.556 449.659 342.39C450.188 342.886 450.848 343.414 451.608 343.844C451.608 343.546 451.41 343.315 451.179 343.084C450.882 342.787 450.65 342.456 450.452 342.159C450.353 342.027 450.287 341.862 450.188 341.697C450.122 341.532 449.99 341.333 450.122 341.201C450.122 341.4 450.287 341.631 450.386 341.763C450.518 341.928 450.683 342.093 450.882 342.258C451.014 342.357 451.179 342.49 451.41 342.556C451.872 342.655 451.707 342.06 451.674 341.961C451.542 341.631 451.179 341.333 450.815 341.102C450.65 341.003 450.452 341.003 450.287 341.069C450.287 341.003 450.386 340.904 450.518 340.871C450.716 340.805 450.915 340.871 451.047 340.97C451.245 341.102 451.377 341.3 451.542 341.433C451.674 341.565 452.005 341.862 451.773 342.027C451.972 341.961 451.972 341.862 451.905 341.763C451.773 341.565 451.608 341.366 451.41 341.168C451.212 340.97 450.815 340.64 450.386 340.871C450.254 340.937 450.221 341.036 450.188 341.135C450.122 341.201 450.056 341.267 450.023 341.333C449.99 341.499 450.089 341.664 450.188 341.796C450.287 342.027 450.419 342.225 450.584 342.423C450.749 342.655 450.915 342.886 451.113 343.084C451.311 343.282 451.509 343.513 451.608 343.745C450.749 343.216 450.056 342.655 449.494 341.994C449.428 341.895 449.329 341.763 449.23 341.664C449.23 341.796 449.329 341.928 449.428 342.027C449.56 342.225 449.659 342.423 449.692 342.622C449.692 342.688 449.692 342.754 449.659 342.82C449.56 343.051 449.098 342.82 448.999 342.754C448.801 342.556 448.669 342.423 448.47 342.291C448.47 342.49 448.635 342.622 448.801 342.754C448.867 342.82 448.9 342.919 448.933 342.985C448.933 343.051 448.933 343.117 448.966 343.15C448.966 343.315 448.768 343.282 448.635 343.216C448.437 343.117 448.272 343.018 448.074 342.952C448.008 343.183 448.074 343.381 448.041 343.58C448.008 343.778 447.678 343.58 447.612 343.58C447.711 343.745 448.041 343.778 448.338 343.745C448.602 344.339 448.074 344.934 447.083 345.132C447.017 345.132 447.05 345.198 447.083 345.198L447.05 345.165ZM450.287 341.135C450.683 340.871 451.245 341.466 451.41 341.631C451.509 341.763 451.608 341.895 451.641 342.027C451.641 342.093 451.674 342.192 451.641 342.258C451.575 342.523 451.344 342.456 451.278 342.39C450.881 342.192 450.584 341.862 450.419 341.565C450.32 341.433 450.287 341.267 450.254 341.102L450.287 341.135Z" fill="#1D71B8"/>
<path d="M429.479 337.238L432.22 340.111L436.745 332.812L432.748 330.962L429.479 337.238Z" fill="#F69A62"/>
<path d="M443.979 334.86C443.583 335.851 443.483 336.941 443.814 338.13L443.45 339.055L443.12 339.913L442.757 341.4C442.426 341.73 441.997 341.862 441.535 341.928L440.874 342.985C440.709 343.249 440.379 343.316 439.85 343.216L439.024 344.042C438.496 344.472 437.142 344.207 435.589 344.108C435.49 344.108 432.815 342.82 432.815 342.82C432.815 342.82 431.989 342.457 431.824 341.862C431.593 341.003 431.89 340.838 431.758 340.475C431.626 340.079 430.998 339.781 430.998 338.823C430.998 337.7 431.758 337.667 431.824 337.172C431.89 336.743 431.427 336.643 431.791 335.454C432.055 334.563 433.079 334.529 433.376 334.067C433.607 333.638 433.64 332.581 434.4 331.821C435.127 331.094 436.811 331.821 436.811 331.821L438.661 332.878L442.691 332.416L443.12 332.614C443.979 333.01 444.375 334.034 444.012 334.893L443.979 334.86Z" fill="#FFAE80"/>
<path d="M439.123 333.143L442.129 333.506C442.129 333.506 442.129 336.71 442.129 336.446C442.129 336.28 441.006 335.091 440.147 334.2C439.585 333.605 439.123 333.143 439.123 333.143Z" fill="#FFAE80"/>
<path d="M445.729 343.283L434.069 328.32C433.772 327.957 433.838 327.428 434.201 327.164C434.564 326.867 435.093 326.933 435.357 327.296L447.017 342.259C447.314 342.622 448.008 344.174 447.644 344.439C447.281 344.736 445.993 343.646 445.696 343.283H445.729Z" fill="#1D1D1B"/>
<path d="M443.417 339.054L443.087 339.913L442.723 341.399C442.393 341.73 441.964 341.862 441.501 341.928L440.841 342.985C440.675 343.249 440.345 343.315 439.817 343.216L438.991 344.042C438.462 344.471 437.108 344.207 435.556 344.108C436.712 342.324 437.372 340.342 437.504 338.129L435.853 335.586L442.525 337.865L443.417 339.054Z" fill="#FFAE80"/>
<path d="M434.961 334.793L437.934 337.271L441.931 338.526C443.483 339.021 444.111 337.139 442.624 336.379C442.459 336.28 439.453 335.058 439.453 335.058L437.009 332.019C435.292 331.689 434.499 333.505 434.994 334.793H434.961Z" fill="#FFAE80"/>
<path d="M437.967 332.878L436.249 332.68L439.42 335.058L438.528 332.878H437.967Z" fill="#FFAE80"/>
<path d="M447.843 344.769L447.546 344.438C447.479 344.372 447.678 344.207 447.744 344.306L447.975 344.604C447.975 344.604 447.975 344.736 447.975 344.769H447.909H447.843Z" fill="#B2B2B2"/>
<path d="M399.651 271.673C405.332 272.07 408.073 275.34 409.758 284.522L415.307 307.61C421.814 313.192 427.462 321.021 434.035 331.524C431.855 333.11 429.906 335.719 430.633 338.394C420.03 331.888 411.178 323.96 404.407 313.49C397.768 296.512 388.685 277.256 399.651 271.607V271.673Z" fill="white"/>
<path d="M474.298 329.905C474.926 330.962 473.802 332.184 472.944 331.392L472.547 331.193C472.944 331.953 471.821 333.241 470.929 332.449L469.872 331.491C469.773 332.548 469.41 333.076 468.386 332.382L465.347 328.683L461.746 326.008V328.055L462.87 330.07C463.497 331.392 462.374 332.449 461.515 331.292L460.524 329.872L459.93 329.079L459.17 326.734C459.269 325.38 459.401 323.332 460.062 321.482L458.84 320.492L462.44 317.948L464.29 319.005C466.272 319.203 470.433 322.077 470.995 323.068L473.869 327.329C474.793 328.485 474.826 329.641 473.803 329.245L474.298 329.938V329.905Z" fill="#FFAE80"/>
<path d="M447.741 304.373C451.143 310.715 455.074 317.09 459.566 323.134L460.755 321.681C461.845 320.194 463.1 319.236 464.521 319.071C463.166 312.366 459.896 304.67 456.725 296.875L447.741 304.373Z" fill="white"/>
<g style="mix-blend-mode:multiply">
<path d="M447.741 304.373C451.143 310.715 455.074 317.09 459.566 323.134L460.755 321.681C456.296 315.174 452.63 308.766 449.723 302.722L447.741 304.373Z" fill="#D6EEEB"/>
</g>
<path d="M470.928 332.416L469.871 331.458C469.772 332.515 469.409 333.043 468.385 332.35L465.346 328.65L461.746 325.975V328.023L462.869 330.037C463.496 331.359 462.373 332.416 461.514 331.26L460.523 329.839C461.118 330.533 461.68 331.028 462.241 330.962C462.472 330.17 461.779 329.014 461.118 327.924C461.58 327.032 461.547 325.744 461.382 324.323C462.571 326.074 464.025 327.164 465.808 327.461C466.601 329.377 467.625 331.227 468.946 332.019C469.508 331.953 469.739 331.491 469.838 330.83C470.3 331.557 471.126 332.184 471.886 332.019L472.546 331.227C472.943 331.986 471.82 333.274 470.928 332.482V332.416Z" fill="#FFAE80"/>
<path d="M292.302 277.553C292.302 284.522 286.654 293.44 279.685 297.47C272.716 301.499 267.067 299.121 267.067 292.152C267.067 285.183 272.716 276.264 279.685 272.235C286.654 268.205 292.302 270.583 292.302 277.553Z" fill="white"/>
<path d="M435.653 338.855V372.877L450.55 364.289V330.268L435.653 338.855Z" fill="#DB2535"/>
<path d="M424.887 366.635L435.655 372.877V338.856L424.887 332.646V366.635Z" fill="#9E2E3B"/>
<path d="M424.887 332.646L425.712 333.142L435.655 338.856L450.551 330.268L440.609 324.521L439.75 324.059L424.887 332.646Z" fill="#DB2535"/>
<path d="M435.654 355.074V372.844L450.551 364.256V345.627C448.602 344.999 446.191 345.363 443.516 346.882C440.477 348.633 437.702 351.606 435.654 355.041V355.074Z" fill="#F9A733"/>
<path d="M440.212 354.843C440.212 357.155 441.83 358.08 443.845 356.924C445.86 355.768 447.479 352.96 447.479 350.648C447.479 348.336 445.86 347.411 443.845 348.567C441.83 349.723 440.212 352.531 440.212 354.843Z" fill="white"/>
<path d="M441.731 353.984C441.731 355.338 442.689 355.9 443.845 355.206C445.001 354.545 445.959 352.894 445.959 351.54C445.959 350.185 445.001 349.624 443.845 350.318C442.689 350.978 441.731 352.63 441.731 353.984Z" fill="#E94E1B"/>
<path d="M432.947 369.804L433.674 370.2V350.085L432.947 349.688V369.804Z" fill="white"/>
<path d="M431.461 368.945L432.155 369.341V352.133L431.461 351.736V368.945Z" fill="white"/>
<path d="M429.941 368.054L430.668 368.483V355.568L429.941 355.172V368.054Z" fill="white"/>
<path d="M428.454 367.195L429.148 367.624V352.034L428.454 351.604V367.195Z" fill="white"/>
<path d="M437.771 363.926L448.439 357.783V355.636L437.771 361.812V363.926Z" fill="white"/>
<path d="M438.696 365.114L447.515 360.028V358.971L438.696 364.057V365.114Z" fill="white"/>
<path d="M438.696 366.832L447.515 361.745V360.688L438.696 365.775V366.832Z" fill="white"/>
<path d="M440.48 367.525L445.699 364.487V363.43L440.48 366.435V367.525Z" fill="white"/>
<path d="M437.638 341.664C437.638 342.523 438.232 342.853 438.992 342.424L447.216 337.668C447.943 337.238 448.571 336.214 448.571 335.355C448.571 334.497 447.976 334.166 447.216 334.596L438.992 339.352C438.265 339.782 437.638 340.805 437.638 341.664Z" fill="white"/>
<path d="M494.248 293.507V327.528L509.112 318.907V284.919L494.248 293.507Z" fill="#DB2535"/>
<path d="M483.448 321.285L494.249 327.528V293.506L483.448 287.264V321.285Z" fill="#9E2E3B"/>
<path d="M483.448 287.264L484.307 287.759L494.249 293.506L509.113 284.918L499.171 279.171L498.345 278.676L483.448 287.264Z" fill="#DB2535"/>
<path d="M494.248 309.724V327.494L509.145 318.906V300.277C507.196 299.65 504.785 300.013 502.109 301.533C499.07 303.283 496.296 306.256 494.248 309.691V309.724Z" fill="#F9A733"/>
<path d="M498.809 309.493C498.809 311.805 500.427 312.73 502.442 311.574C504.457 310.418 506.075 307.61 506.075 305.298C506.075 302.986 504.457 302.061 502.442 303.217C500.427 304.373 498.809 307.181 498.809 309.493Z" fill="white"/>
<path d="M500.328 308.633C500.328 309.988 501.286 310.549 502.442 309.855C503.598 309.195 504.556 307.543 504.556 306.189C504.556 304.835 503.598 304.273 502.442 304.967C501.286 305.661 500.328 307.279 500.328 308.633Z" fill="#E94E1B"/>
<path d="M491.542 324.455L492.236 324.851V304.736L491.542 304.307V324.455Z" fill="white"/>
<path d="M490.022 323.563L490.749 323.993V306.784L490.022 306.354V323.563Z" fill="white"/>
<path d="M488.536 322.704L489.23 323.133V310.219L488.536 309.822V322.704Z" fill="white"/>
<path d="M487.017 321.845L487.743 322.241V306.651L487.017 306.255V321.845Z" fill="white"/>
<path d="M496.331 318.576L507 312.432V310.285L496.331 316.462V318.576Z" fill="white"/>
<path d="M497.256 319.765L506.075 314.678V313.621L497.256 318.708V319.765Z" fill="white"/>
<path d="M497.256 321.482L506.075 316.395V315.338L497.256 320.425V321.482Z" fill="white"/>
<path d="M499.072 322.143L504.291 319.137V318.08L499.072 321.086V322.143Z" fill="white"/>
<path d="M496.231 296.281C496.231 297.14 496.826 297.471 497.586 297.041L505.81 292.285C506.537 291.855 507.164 290.831 507.164 289.973C507.164 289.114 506.57 288.784 505.81 289.213L497.586 293.969C496.859 294.399 496.231 295.423 496.231 296.281Z" fill="white"/>
<path d="M328.631 588.862C328.631 585.724 331.042 584.535 334.609 584.172C337.714 584.172 341.942 585.559 347.425 586.847L353.701 590.282C354.89 593.519 354.857 596.393 354.163 599.035C352.413 600.555 350.167 601.513 348.086 600.951L341.017 597.945L340.522 596.922C334.907 596.294 328.631 593.751 328.631 588.895V588.862Z" fill="black"/>
<path d="M351.555 576.343C351.555 573.8 353.834 573.338 357.236 573.106C363.38 573.106 363.644 576.178 369.325 576.046L374.874 579.415C375.997 582.685 375.766 586.153 375.105 588.763C373.421 590.216 370.844 590.546 368.929 590.282L363.214 586.913L362.719 585.889C357.335 585.096 351.555 581.1 351.555 576.343Z" fill="black"/>
<path d="M371.737 489.374L351.226 497.962C351.193 501.595 351.292 505.03 351.622 507.574C352.91 517.02 356.742 531.289 356.742 531.289C359.483 543.444 360.606 558.506 361.234 574.394C361.333 580.108 369.855 585.129 375.305 579.712C376.857 560.323 376.857 541.496 372.299 529.01C374.479 519.167 372.431 508.168 371.804 496.839C372.332 496.608 371.176 489.638 371.737 489.374Z" fill="#3F81AB"/>
<path d="M356.379 509.721C356.379 521.051 356.511 530.2 353.769 540.043C357.634 552.496 356.577 571.026 353.934 590.381C350.598 594.048 345.809 594.081 342.836 591.901C340.921 590.513 339.764 588.201 340.161 585.328L338.08 542.289C338.08 542.289 335.074 528.02 334.281 518.607C333.522 509.16 336.858 487.591 336.858 487.591C338.708 488.087 340.524 488.45 342.341 488.681C354.529 490.234 365.759 485.874 369.26 478.904C369.426 479.4 369.624 479.928 369.789 480.457C371.11 484.652 371.87 489.045 372.068 493.537C372.464 503.512 362.687 507.178 356.379 509.755V509.721Z" fill="#50A4D9"/>
<g style="mix-blend-mode:multiply" opacity="0.5">
<path d="M334.314 518.607C335.073 528.054 338.112 542.29 338.112 542.29L340.193 585.328C339.797 588.169 340.986 590.481 342.902 591.901C341.019 573.8 340.193 556.823 342.902 543.677C338.839 528.78 337.022 513.157 341.679 501.629C342.968 497.435 345.412 493.042 350.73 491.06C349.012 490.531 338.641 488.351 336.89 487.559C336.89 487.559 333.554 509.127 334.314 518.574V518.607Z" fill="#3F81AB"/>
</g>
<path d="M351.292 400.226L350.797 399.83L348.815 398.806L347.791 398.443L345.446 397.815L344.752 397.947L342.275 392.761C341.482 391.209 340.161 391.671 340.69 393.125C341.582 395.206 342.143 397.386 342.374 399.599C342.242 401.448 341.78 403.298 340.591 403.826L337.453 402.175C335.768 401.514 335.636 403.232 336.495 403.727C337.915 404.817 339.137 405.973 340.062 407.262C342.143 408.087 343.993 409.111 345.38 410.565L350.83 410.796C350.83 409.574 351.127 408.385 351.458 407.262C351.887 405.808 352.382 404.421 352.217 403.166L351.292 400.292V400.226Z" fill="#FFAE80"/>
<path d="M368.766 450.663C361.4 452.942 349.509 432.331 346.702 430.217C343.795 423.083 344.687 419.846 344.026 410.135C345.116 405.907 349.344 405.577 351.26 407.889C354.299 414.065 354.2 415.717 355.686 419.648C362.953 425.329 370.715 432.661 373.588 435.337C376.561 441.414 376.297 448.351 368.766 450.696V450.663Z" fill="#FFAE80"/>
<path d="M376.229 444.718C374.941 460.507 371.539 475.932 369.788 480.424C362.191 491.258 352.612 492.876 342.076 489.573C340.358 489.045 338.608 488.384 336.857 487.624C334.908 479.895 335.503 469.16 335.14 458.756C335.007 454.891 334.743 451.093 334.182 447.493C344.289 438.641 353.24 434.677 366.287 431.539C372.728 431.539 376.163 437.484 376.196 444.751L376.229 444.718Z" fill="#FF264A"/>
<g style="mix-blend-mode:multiply" opacity="0.5">
<path d="M350.697 491.125C344.058 491.125 338.608 488.417 336.857 487.624C334.908 479.895 335.503 469.16 335.14 458.756L345.808 459.78C345.214 471.01 346.667 482.868 350.697 491.125Z" fill="#A81931"/>
</g>
<path d="M345.941 431.606L345.842 439.434C354.033 443.562 361.465 437.683 360.21 434.281L358.757 427.146L345.941 431.606Z" fill="#FFAE80"/>
<path d="M342.338 431.605C344.881 434.479 348.712 434.115 352.61 433.059C358.291 430.416 362.387 426.519 361.858 419.12C362.321 413.736 359.877 408.121 350.694 408.385C344.848 408.583 339.893 410.697 339.53 416.94C339.53 416.94 339.233 428.699 342.371 431.605H342.338Z" fill="#FFAE80"/>
<path d="M361.893 422.62C361.661 424.47 361.331 426.121 360.935 427.343C360.637 428.268 359.481 431.77 359.151 432.166C357.169 435.006 349.473 436.856 345.113 433.718L343.594 430.647C343.594 430.647 342.537 425.097 342.273 425.097C341.48 423.347 341.183 422.158 340.885 420.374C338.507 416.212 339.994 417.6 339.531 415.453C338.937 410.564 343.429 406.336 350.662 406.667C357.962 406.964 361.397 411.588 362.091 416.344C362.19 418.491 362.091 420.671 361.893 422.653V422.62Z" fill="black"/>
<path d="M340.623 425.031C339.929 424.239 340.986 422.422 341.779 422.191C342.869 421.828 343.463 423.413 343.595 424.272C343.761 425.428 343.595 426.32 342.968 427.278C342.208 428.368 341.052 427.278 340.689 426.419C340.425 425.791 341.085 425.527 340.656 425.031H340.623Z" fill="#FFAE80"/>
<path d="M324.14 503.874L323.81 506.88L321.663 515.038L321.167 517.35L320.011 519.828C319.384 521.413 318.393 521.182 318.69 519.431L316.774 523.164C315.915 524.749 314.759 524.287 315.189 522.569L316.708 517.516L312.844 523.23C311.622 524.815 310.399 524.188 311.39 521.975L314.198 516.029L309.475 520.389C307.757 522.173 306.535 520.951 307.757 519.167L311.886 514.411L312.844 511.108L311.952 509.621L307.757 511.471C305.874 512.231 304.982 510.216 307.162 509.093L311.522 506.715L313.372 505.261L317.864 504.105L319.615 502.586L324.14 503.874Z" fill="#FFAE80"/>
<path d="M317.864 504.106C318.227 506.682 320.44 507.607 323.446 508.301C329.953 500.638 337.319 492.512 340.457 485.906L345.808 464.139C350.597 446.468 333.818 439.994 332.001 452.149L327.608 480.06L317.831 504.139L317.864 504.106Z" fill="#FFAE80"/>
<path d="M354.661 424.702L355.091 426.155C356.973 426.056 358.526 425.692 359.715 424.966L360.045 423.281C358.46 424.272 356.973 424.735 354.661 424.669V424.702Z" fill="white"/>
<path d="M340.985 418.591C338.508 414.495 335.833 410.531 337.22 408.219C339.268 405.048 344.784 403.298 347.955 403.992C350.432 404.586 352.678 406.238 354.825 408.318L340.985 418.558V418.591Z" fill="#3F81AB"/>
<path d="M340.06 413.801C339.565 420.936 346.798 425.56 355.089 426.187C354.957 423.908 354.693 422.191 357.467 421.629C359.383 421.233 359.944 423.083 359.713 425.031C362.62 422.851 363.082 419.449 362.653 415.981C360.836 409.672 357.5 405.312 349.837 404.718C345.279 405.114 341.15 407.426 340.06 413.834V413.801Z" fill="#50A4D9"/>
<path d="M413.155 552.826C413.155 549.589 415.632 548.367 419.332 547.971C422.536 547.971 426.896 549.424 432.577 550.712L439.051 554.246C440.273 557.583 440.24 560.522 439.513 563.264C437.697 564.849 435.384 565.807 433.237 565.246L425.938 562.174L425.409 561.117C419.596 560.489 413.122 557.847 413.122 552.826H413.155Z" fill="black"/>
<path d="M436.806 539.912C436.806 537.27 439.151 536.84 442.685 536.543C449.027 536.543 449.291 539.714 455.137 539.582L460.885 543.083C462.074 546.452 461.81 550.052 461.149 552.728C459.398 554.247 456.756 554.577 454.774 554.28L448.862 550.812L448.366 549.755C442.817 548.929 436.839 544.801 436.839 539.912H436.806Z" fill="black"/>
<path d="M457.616 450.169L436.443 459.021C436.41 462.787 436.509 466.288 436.873 468.93C438.194 478.674 442.125 493.406 442.125 493.406C444.965 505.924 446.088 521.481 446.749 537.864C446.848 543.777 455.634 548.929 461.249 543.347C462.868 523.331 462.868 503.909 458.144 491.06C460.39 480.887 458.276 469.558 457.649 457.865C458.21 457.634 456.988 450.433 457.583 450.169H457.616Z" fill="black"/>
<path d="M441.792 471.176C441.792 482.869 441.925 492.315 439.084 502.456C443.081 515.305 441.991 534.429 439.249 554.412C435.814 558.178 430.892 558.244 427.821 555.965C425.839 554.511 424.65 552.133 425.046 549.194L422.899 504.801C422.899 504.801 419.794 490.102 419.002 480.359C418.209 470.615 421.644 448.352 421.644 448.352C436.21 452.316 441.396 437.684 455.071 439.368C455.269 439.897 455.434 440.425 455.599 440.954C456.986 445.28 457.746 449.806 457.944 454.463C458.341 464.735 448.266 468.534 441.759 471.176H441.792Z" fill="#3C3C3B"/>
<g style="mix-blend-mode:multiply" opacity="0.5">
<path d="M419.002 480.358C419.794 490.102 422.899 504.8 422.899 504.8L425.046 549.226C424.617 552.166 425.839 554.544 427.854 555.997C425.905 537.302 425.046 519.796 427.854 506.254C423.692 490.862 421.776 474.776 426.566 462.885C427.887 458.558 429.538 451.754 435.054 449.706C433.271 449.144 423.461 449.177 421.644 448.385C421.644 448.385 418.209 470.647 419.002 480.358Z" fill="#3F81AB"/>
</g>
<path d="M412.726 414.232C407.111 414.232 402.354 409.971 399.349 406.371C393.667 399.567 390.133 390.285 390.86 386.85C390.926 386.553 391.223 386.355 391.521 386.421C391.818 386.487 392.016 386.784 391.95 387.082C391.289 390.219 394.824 399.237 400.207 405.678C403.114 409.179 407.705 413.308 413.056 413.142C416.987 413.01 417.945 409.212 419.2 404.356C420.389 399.666 421.776 394.315 426.4 391.409C426.665 391.243 426.995 391.309 427.16 391.574C427.325 391.838 427.226 392.168 426.995 392.333C422.734 395.009 421.413 400.095 420.257 404.621C419.002 409.476 417.846 414.067 413.089 414.199C412.99 414.199 412.858 414.199 412.759 414.199L412.726 414.232Z" fill="black"/>
<path d="M396.378 385.76L394.561 390.351C390.994 389.988 387.79 389.261 386.205 386.916L384.982 378.956L389.937 378.13L396.345 385.76H396.378Z" fill="#E68F5E"/>
<path d="M373.192 394.646L374.348 389.89L368.964 387.512L369.426 393.424L373.192 394.646Z" fill="#E68F5E"/>
<path d="M362.025 383.945L359.383 382.425C358.689 382.029 358.293 381.203 358.293 379.981C358.293 377.603 359.978 374.696 362.058 373.474C363.082 372.879 364.04 372.813 364.701 373.21L367.343 374.729L362.025 383.912V383.945Z" fill="#1D1D1B"/>
<path d="M365.394 386.258L361.364 383.912C360.637 383.483 360.208 382.591 360.208 381.336C360.208 378.793 361.992 375.688 364.205 374.433C365.295 373.805 366.319 373.739 367.012 374.168L371.042 376.514L365.394 386.291V386.258Z" fill="#3C3C3B"/>
<path d="M372.197 379.09C372.197 376.546 370.414 375.523 368.201 376.778C365.988 378.066 364.204 381.138 364.204 383.681C364.204 386.224 365.988 387.248 368.201 385.993C370.414 384.738 372.197 381.633 372.197 379.09Z" fill="#1D1D1B"/>
<path d="M364.536 385.331L360.506 382.986C360.506 382.986 360.638 383.251 360.704 383.35L364.734 385.695C364.734 385.695 364.602 385.464 364.536 385.331Z" fill="#1D1D1B"/>
<path d="M364.306 384.67L360.276 382.325C360.276 382.325 360.309 382.523 360.342 382.589L364.372 384.935C364.372 384.935 364.306 384.736 364.306 384.67Z" fill="#1D1D1B"/>
<path d="M364.239 384.077L360.209 381.731C360.209 381.731 360.209 381.897 360.209 381.996L364.239 384.341C364.239 384.341 364.239 384.176 364.239 384.077Z" fill="#1D1D1B"/>
<path d="M364.206 383.515L360.177 381.17C360.177 381.401 364.206 383.746 364.206 383.746C364.206 383.614 364.206 383.548 364.206 383.515Z" fill="#1D1D1B"/>
<path d="M364.239 383.019L360.209 380.674C360.209 380.674 360.209 380.839 360.209 380.905L364.239 383.25C364.239 383.25 364.239 383.085 364.239 383.019Z" fill="#1D1D1B"/>
<path d="M364.339 382.524L360.309 380.179C360.309 380.179 360.309 380.311 360.276 380.41L364.306 382.755C364.306 382.755 364.306 382.623 364.339 382.524Z" fill="#1D1D1B"/>
<path d="M364.437 382.029L360.407 379.684C360.407 379.684 360.374 379.816 360.341 379.882L364.371 382.227C364.371 382.227 364.371 382.095 364.437 382.029Z" fill="#1D1D1B"/>
<path d="M364.569 381.566L360.54 379.221C360.54 379.221 360.507 379.353 360.474 379.419L364.503 381.731C364.503 381.731 364.536 381.599 364.569 381.533V381.566Z" fill="#1D1D1B"/>
<path d="M364.733 381.136L360.704 378.791C360.704 378.791 360.671 378.923 360.638 378.989L364.667 381.301C364.667 381.301 364.7 381.169 364.733 381.103V381.136Z" fill="#1D1D1B"/>
<path d="M364.9 380.707L360.871 378.395C360.871 378.395 360.805 378.527 360.805 378.593L364.834 380.938C364.834 380.938 364.9 380.806 364.9 380.74V380.707Z" fill="#1D1D1B"/>
<path d="M365.099 380.279L361.07 377.934C361.07 377.934 361.004 378.066 360.971 378.132L365 380.477C365 380.477 365.066 380.345 365.099 380.279Z" fill="#1D1D1B"/>
<path d="M365.328 379.849L361.298 377.537C361.298 377.537 361.232 377.669 361.199 377.702L365.229 380.047C365.229 380.047 365.295 379.915 365.328 379.882V379.849Z" fill="#1D1D1B"/>
<path d="M365.56 379.453L361.531 377.107C361.531 377.107 361.465 377.24 361.432 377.273L365.461 379.618C365.461 379.618 365.527 379.486 365.56 379.453Z" fill="#1D1D1B"/>
<path d="M365.825 379.088L361.795 376.743C361.795 376.743 361.729 376.842 361.696 376.908L365.726 379.253C365.726 379.253 365.792 379.154 365.825 379.088Z" fill="#1D1D1B"/>
<path d="M366.091 378.693L362.061 376.381C362.061 376.381 361.995 376.48 361.929 376.546L365.958 378.858C365.958 378.858 366.024 378.759 366.091 378.693Z" fill="#1D1D1B"/>
<path d="M366.386 378.329L362.357 375.983C362.357 375.983 362.258 376.082 362.225 376.149L366.254 378.461C366.254 378.461 366.353 378.362 366.386 378.296V378.329Z" fill="#1D1D1B"/>
<path d="M366.715 377.966L362.686 375.621C362.686 375.621 362.587 375.72 362.554 375.786L366.583 378.131C366.583 378.131 366.682 378.032 366.715 377.966Z" fill="#1D1D1B"/>
<path d="M367.045 377.635L363.016 375.29C363.016 375.29 362.917 375.389 362.851 375.422L366.88 377.767C366.88 377.767 366.979 377.668 367.045 377.635Z" fill="#1D1D1B"/>
<path d="M367.41 377.305L363.38 374.993C363.38 374.993 363.281 375.092 363.215 375.125L367.245 377.47C367.245 377.47 367.344 377.371 367.41 377.338V377.305Z" fill="#1D1D1B"/>
<path d="M367.84 377.007L363.81 374.662C363.81 374.662 363.678 374.761 363.612 374.794L367.642 377.106C367.642 377.106 367.774 377.007 367.84 376.974V377.007Z" fill="#1D1D1B"/>
<path d="M368.268 376.744L364.239 374.398C364.04 374.531 368.07 376.843 368.07 376.843C368.235 376.744 368.235 376.744 368.268 376.711V376.744Z" fill="#1D1D1B"/>
<path d="M368.763 376.479L364.733 374.167C364.733 374.167 364.568 374.233 364.502 374.266L368.532 376.611C368.532 376.611 368.697 376.545 368.763 376.512V376.479Z" fill="#1D1D1B"/>
<path d="M369.393 376.281L365.363 373.936C365.363 373.936 365.165 373.969 365.099 374.002L369.128 376.347C369.128 376.347 369.327 376.281 369.393 376.281Z" fill="#1D1D1B"/>
<path d="M370.22 376.248L366.19 373.903C366.19 373.903 365.926 373.903 365.761 373.903L369.79 376.248C369.79 376.248 370.088 376.248 370.22 376.248Z" fill="#1D1D1B"/>
<path d="M367.078 387.116L365.558 386.224C364.865 385.827 364.402 384.936 364.402 383.68C364.402 381.203 366.153 378.164 368.3 376.909C369.39 376.282 370.348 376.216 371.074 376.645L372.594 377.537L367.078 387.116Z" fill="#3C3C3B"/>
<path d="M373.749 380.08C373.749 377.603 371.999 376.579 369.852 377.834C367.705 379.089 365.954 382.095 365.954 384.605C365.954 387.115 367.705 388.106 369.852 386.851C371.999 385.596 373.749 382.59 373.749 380.08Z" fill="#1D1D1B"/>
<path d="M369.854 388.834L367.41 387.413C366.683 386.984 366.254 386.092 366.254 384.837C366.254 382.294 368.038 379.189 370.251 377.934C371.341 377.306 372.365 377.24 373.058 377.669L375.502 379.09L369.854 388.867V388.834Z" fill="#3C3C3B"/>
<path d="M376.66 381.666C376.66 379.123 374.877 378.099 372.664 379.354C370.451 380.642 368.667 383.714 368.667 386.257C368.667 388.801 370.451 389.824 372.664 388.569C374.877 387.281 376.66 384.209 376.66 381.666Z" fill="#9D9D9C"/>
<path d="M368.995 387.908L366.551 386.487C366.551 386.487 366.683 386.752 366.749 386.851L369.193 388.271C369.193 388.271 369.061 388.04 368.995 387.908Z" fill="#1D1D1B"/>
<path d="M368.766 387.246L366.321 385.826C366.321 385.826 366.354 386.024 366.387 386.09L368.832 387.511C368.832 387.511 368.766 387.313 368.766 387.246Z" fill="#1D1D1B"/>
<path d="M368.699 386.653L366.255 385.232C366.255 385.232 366.255 385.398 366.255 385.497L368.699 386.917C368.699 386.917 368.699 386.752 368.699 386.653Z" fill="#1D1D1B"/>
<path d="M368.666 386.091L366.222 384.671C366.222 384.902 368.666 386.322 368.666 386.322C368.666 386.19 368.666 386.124 368.666 386.091Z" fill="#1D1D1B"/>
<path d="M368.73 385.595L366.286 384.175C366.286 384.175 366.286 384.34 366.286 384.406L368.73 385.826C368.73 385.826 368.73 385.661 368.73 385.595Z" fill="#1D1D1B"/>
<path d="M368.799 385.1L366.354 383.68C366.354 383.68 366.354 383.812 366.321 383.911L368.766 385.331C368.766 385.331 368.766 385.199 368.799 385.1Z" fill="#1D1D1B"/>
<path d="M368.896 384.605L366.452 383.185C366.452 383.185 366.419 383.317 366.386 383.383L368.83 384.803C368.83 384.803 368.83 384.671 368.896 384.605Z" fill="#1D1D1B"/>
<path d="M369.029 384.142L366.585 382.722C366.585 382.722 366.552 382.854 366.519 382.92L368.963 384.34C368.963 384.34 368.996 384.208 369.029 384.142Z" fill="#1D1D1B"/>
<path d="M369.193 383.713L366.749 382.293C366.749 382.293 366.716 382.425 366.683 382.491L369.127 383.911C369.127 383.911 369.16 383.779 369.193 383.713Z" fill="#1D1D1B"/>
<path d="M369.361 383.284L366.917 381.863C366.917 381.863 366.851 381.995 366.851 382.061L369.295 383.482C369.295 383.482 369.361 383.35 369.361 383.284Z" fill="#1D1D1B"/>
<path d="M369.559 382.855L367.115 381.435C367.115 381.435 367.049 381.567 367.016 381.633L369.46 383.053C369.46 383.053 369.526 382.921 369.559 382.855Z" fill="#1D1D1B"/>
<path d="M369.787 382.458L367.343 381.038C367.343 381.038 367.277 381.17 367.244 381.203L369.688 382.624C369.688 382.624 369.754 382.491 369.787 382.458Z" fill="#1D1D1B"/>
<path d="M370.02 382.029L367.576 380.608C367.576 380.608 367.51 380.741 367.477 380.774L369.921 382.194C369.921 382.194 369.987 382.062 370.02 382.029Z" fill="#1D1D1B"/>
<path d="M370.285 381.664L367.84 380.244C367.84 380.244 367.774 380.343 367.741 380.409L370.185 381.83C370.185 381.83 370.251 381.731 370.285 381.664Z" fill="#1D1D1B"/>
<path d="M370.55 381.27L368.106 379.85C368.106 379.85 368.04 379.949 367.974 380.015L370.418 381.435C370.418 381.435 370.517 381.336 370.55 381.27Z" fill="#1D1D1B"/>
<path d="M370.847 380.905L368.403 379.484C368.403 379.484 368.304 379.583 368.271 379.65L370.715 381.07C370.715 381.07 370.814 380.971 370.847 380.905Z" fill="#1D1D1B"/>
<path d="M371.175 380.541L368.731 379.121C368.731 379.121 368.632 379.22 368.599 379.286L371.043 380.707C371.043 380.707 371.142 380.607 371.175 380.541Z" fill="#1D1D1B"/>
<path d="M371.505 380.211L369.061 378.791C369.061 378.791 368.962 378.89 368.896 378.923L371.34 380.343C371.34 380.343 371.439 380.244 371.505 380.211Z" fill="#1D1D1B"/>
<path d="M371.869 379.881L369.425 378.461C369.425 378.461 369.326 378.56 369.26 378.593L371.704 380.013C371.704 380.013 371.803 379.914 371.869 379.881Z" fill="#1D1D1B"/>
<path d="M372.3 379.584L369.855 378.164C369.855 378.164 369.723 378.263 369.657 378.296L372.101 379.716C372.101 379.716 372.234 379.617 372.3 379.584Z" fill="#1D1D1B"/>
<path d="M372.729 379.32L370.285 377.899C370.087 378.032 372.531 379.419 372.531 379.419C372.696 379.32 372.696 379.32 372.729 379.287V379.32Z" fill="#1D1D1B"/>
<path d="M373.258 379.055L370.814 377.635C370.814 377.635 370.649 377.701 370.583 377.734L373.027 379.154C373.027 379.154 373.192 379.088 373.258 379.055Z" fill="#1D1D1B"/>
<path d="M373.853 378.857L371.409 377.437C371.409 377.437 371.211 377.47 371.145 377.503L373.589 378.923C373.589 378.923 373.787 378.857 373.853 378.857Z" fill="#1D1D1B"/>
<path d="M374.679 378.825L372.235 377.404C372.235 377.404 371.971 377.404 371.806 377.404L374.25 378.825C374.25 378.825 374.547 378.825 374.679 378.825Z" fill="#1D1D1B"/>
<path d="M372.43 390.352L370.316 389.13C369.59 388.701 369.16 387.809 369.16 386.554C369.16 384.01 370.944 380.906 373.157 379.651C374.247 379.023 375.271 378.957 375.964 379.386L378.078 380.608L372.43 390.385V390.352Z" fill="#3C3C3B"/>
<path d="M379.234 383.152C379.234 380.609 377.45 379.585 375.237 380.84C373.024 382.128 371.24 385.2 371.24 387.743C371.24 390.287 373.024 391.311 375.237 390.056C377.45 388.767 379.234 385.696 379.234 383.152Z" fill="#1D1D1B"/>
<path d="M374.345 391.442L372.793 390.55C372.066 390.121 371.637 389.229 371.637 387.974C371.637 385.43 373.42 382.326 375.633 381.07C376.723 380.443 377.747 380.377 378.441 380.806L379.993 381.698L374.345 391.475V391.442Z" fill="#3C3C3B"/>
<path d="M381.15 384.24C381.15 381.697 379.366 380.673 377.153 381.928C374.94 383.216 373.156 386.288 373.156 388.831C373.156 391.375 374.94 392.399 377.153 391.144C379.366 389.855 381.15 386.784 381.15 384.24Z" fill="#1D1D1B"/>
<path d="M373.487 390.517L371.935 389.625C371.935 389.625 372.067 389.889 372.133 389.988L373.685 390.88C373.685 390.88 373.553 390.649 373.487 390.517Z" fill="#1D1D1B"/>
<path d="M373.258 389.823L371.705 388.932C371.705 388.932 371.738 389.13 371.771 389.196L373.324 390.088C373.324 390.088 373.258 389.89 373.258 389.823Z" fill="#1D1D1B"/>
<path d="M373.191 389.263L371.639 388.371C371.639 388.371 371.639 388.536 371.639 388.635L373.191 389.527C373.191 389.527 373.191 389.362 373.191 389.263Z" fill="#1D1D1B"/>
<path d="M373.158 388.701L371.605 387.81C371.605 388.041 373.158 388.933 373.158 388.933C373.158 388.8 373.158 388.734 373.158 388.701Z" fill="#1D1D1B"/>
<path d="M373.222 388.172L371.67 387.28C371.67 387.28 371.67 387.445 371.67 387.511L373.222 388.403C373.222 388.403 373.222 388.238 373.222 388.172Z" fill="#1D1D1B"/>
<path d="M373.291 387.677L371.738 386.785C371.738 386.785 371.738 386.917 371.705 387.016L373.258 387.908C373.258 387.908 373.258 387.776 373.291 387.677Z" fill="#1D1D1B"/>
<path d="M373.388 387.214L371.836 386.322C371.836 386.322 371.803 386.454 371.77 386.52L373.322 387.412C373.322 387.412 373.322 387.28 373.388 387.214Z" fill="#1D1D1B"/>
<path d="M373.521 386.753L371.968 385.861C371.968 385.861 371.935 385.993 371.902 386.06L373.455 386.951C373.455 386.951 373.488 386.819 373.521 386.753Z" fill="#1D1D1B"/>
<path d="M373.685 386.29L372.132 385.398C372.132 385.398 372.099 385.531 372.066 385.597L373.619 386.488C373.619 386.488 373.652 386.356 373.685 386.29Z" fill="#1D1D1B"/>
<path d="M373.854 385.861L372.301 384.969C372.301 384.969 372.235 385.101 372.235 385.167L373.788 386.059C373.788 386.059 373.854 385.927 373.854 385.861Z" fill="#1D1D1B"/>
<path d="M374.051 385.432L372.499 384.54C372.499 384.54 372.432 384.672 372.399 384.738L373.952 385.63C373.952 385.63 374.018 385.498 374.051 385.432Z" fill="#1D1D1B"/>
<path d="M374.279 385.035L372.727 384.144C372.727 384.144 372.661 384.276 372.628 384.309L374.18 385.201C374.18 385.201 374.246 385.068 374.279 385.035Z" fill="#1D1D1B"/>
<path d="M374.512 384.638L372.959 383.746C372.959 383.746 372.893 383.878 372.86 383.911L374.413 384.803C374.413 384.803 374.479 384.671 374.512 384.638Z" fill="#1D1D1B"/>
<path d="M374.777 384.241L373.224 383.35C373.224 383.35 373.158 383.449 373.125 383.515L374.677 384.407C374.677 384.407 374.743 384.307 374.777 384.241Z" fill="#1D1D1B"/>
<path d="M375.042 383.879L373.49 382.987C373.49 382.987 373.423 383.086 373.357 383.152L374.91 384.044C374.91 384.044 375.009 383.945 375.042 383.879Z" fill="#1D1D1B"/>
<path d="M375.339 383.516L373.786 382.624C373.786 382.624 373.687 382.723 373.654 382.789L375.207 383.681C375.207 383.681 375.306 383.582 375.339 383.516Z" fill="#1D1D1B"/>
<path d="M375.667 383.152L374.115 382.26C374.115 382.26 374.015 382.359 373.982 382.425L375.535 383.317C375.535 383.317 375.634 383.218 375.667 383.152Z" fill="#1D1D1B"/>
<path d="M375.998 382.822L374.445 381.931C374.445 381.931 374.346 382.03 374.28 382.063L375.833 382.955C375.833 382.955 375.932 382.856 375.998 382.822Z" fill="#1D1D1B"/>
<path d="M376.361 382.491L374.809 381.6C374.809 381.6 374.71 381.699 374.644 381.732L376.196 382.624C376.196 382.624 376.295 382.524 376.361 382.491Z" fill="#1D1D1B"/>
<path d="M376.792 382.195L375.239 381.303C375.239 381.303 375.107 381.402 375.041 381.435L376.593 382.327C376.593 382.327 376.726 382.228 376.792 382.195Z" fill="#1D1D1B"/>
<path d="M377.22 381.897L375.668 381.005C375.47 381.137 377.022 382.029 377.022 382.029C377.187 381.93 377.187 381.93 377.22 381.897Z" fill="#1D1D1B"/>
<path d="M377.75 381.666L376.198 380.774C376.198 380.774 376.033 380.84 375.967 380.874L377.519 381.765C377.519 381.765 377.684 381.699 377.75 381.666Z" fill="#1D1D1B"/>
<path d="M378.345 381.468L376.793 380.576C376.793 380.576 376.594 380.609 376.528 380.642L378.081 381.534C378.081 381.534 378.279 381.468 378.345 381.468Z" fill="#1D1D1B"/>
<path d="M379.171 381.402L377.619 380.51C377.619 380.51 377.355 380.51 377.189 380.51L378.742 381.402C378.742 381.402 379.039 381.402 379.171 381.402Z" fill="#1D1D1B"/>
<path d="M376.326 392.895L374.839 392.036C374.08 391.607 373.617 390.682 373.617 389.328C373.617 386.652 375.5 383.448 377.779 382.094C378.935 381.434 379.959 381.368 380.719 381.797L382.205 382.656L376.293 392.862L376.326 392.895Z" fill="#3C3C3B"/>
<path d="M383.427 385.364C383.427 382.688 381.544 381.632 379.265 382.953C376.953 384.274 375.104 387.511 375.104 390.186C375.104 392.862 376.986 393.919 379.265 392.598C381.577 391.276 383.427 388.039 383.427 385.364Z" fill="#1D1D1B"/>
<path d="M379.335 383.449C377.221 384.672 375.569 387.545 375.569 389.923C375.635 392.335 377.254 393.259 379.302 392.07C381.35 390.881 383.034 388.008 383.034 385.629C383.034 383.284 381.383 382.293 379.368 383.449H379.335Z" fill="#575756"/>
<path d="M379.335 383.449C377.221 384.671 375.569 387.545 375.569 389.923C375.768 391.971 377.221 392.698 379.038 391.641C380.953 390.518 382.506 387.842 382.506 385.596C382.506 383.482 381.118 382.591 379.335 383.416V383.449Z" fill="#1D1D1B"/>
<path d="M380.59 384.243C380.227 384.144 379.765 384.21 379.269 384.441C377.651 385.366 376.396 387.579 376.396 389.396C376.462 390.023 376.627 390.419 376.891 390.684C377.386 391.179 378.146 391.212 379.038 390.684C380.491 389.825 381.713 387.777 381.713 386.059C381.713 385.036 381.284 384.375 380.623 384.21L380.59 384.243Z" fill="#3C3C3B"/>
<path d="M380.59 384.243C380.227 384.144 379.765 384.21 379.269 384.441C377.651 385.366 376.396 387.579 376.396 389.396C376.462 390.023 376.627 390.419 376.891 390.684C377.32 390.816 377.882 390.684 378.476 390.386C379.93 389.528 381.152 387.48 381.152 385.762C381.152 385.069 380.954 384.573 380.623 384.243H380.59Z" fill="black"/>
<path d="M392.183 381.369C392.183 381.038 392.018 380.708 391.588 380.444L389.144 379.024L387.295 377.934C386.172 377.306 384.388 377.306 383.265 377.934C382.67 378.264 382.406 378.693 382.406 379.123V381.567L376.89 384.771V386.125L375.503 386.918C375.106 387.149 374.908 387.446 374.908 387.777V397.785C374.908 398.082 375.106 398.412 375.536 398.644L376.494 399.205C377.319 399.667 378.641 399.667 379.433 399.205L380.193 398.743L389.012 393.623L390.73 392.632L391.555 392.137C391.952 391.905 392.15 391.608 392.15 391.278V381.27C392.15 381.27 392.15 381.303 392.15 381.336L392.183 381.369Z" fill="#575756"/>
<path d="M383.231 380.31C382.67 379.98 382.405 379.551 382.405 379.154V389.162C382.405 389.592 382.67 390.021 383.231 390.318L383.925 390.715V380.707L383.264 380.31H383.231Z" fill="#1D1D1B"/>
<path d="M377.749 385.662L377.716 395.67L376.857 394.812L376.89 384.771L377.749 385.662Z" fill="#1D1D1B"/>
<path d="M391.589 382.162L390.763 382.657L389.045 383.648L380.226 388.768L379.467 389.23C378.641 389.692 377.353 389.692 376.527 389.23L375.569 388.668C375.173 388.437 374.941 388.107 374.941 387.81V397.818C374.941 398.115 375.107 398.445 375.536 398.677L376.494 399.238C377.32 399.701 378.641 399.701 379.434 399.238L380.193 398.776L389.012 393.656L390.73 392.665L391.556 392.17C391.952 391.938 392.15 391.641 392.15 391.311V381.303C392.15 381.6 391.985 381.93 391.589 382.162Z" fill="#1D1D1B"/>
<path d="M391.59 380.443C392.416 380.906 392.416 381.666 391.59 382.161L390.764 382.656L389.047 383.647L380.228 388.767L379.468 389.229C378.642 389.692 377.354 389.692 376.528 389.229L375.57 388.668C374.745 388.206 374.745 387.446 375.57 386.95L377.817 385.629L376.958 384.77L383.993 380.675L383.3 380.278C382.177 379.651 382.177 378.594 383.3 377.966C384.456 377.306 386.239 377.306 387.362 377.966L389.212 379.056L391.656 380.476L391.59 380.443Z" fill="#575756"/>
<path d="M381.977 385.958C381.283 385.892 380.986 385.892 380.259 385.826L378.244 383.778V384.868L380.259 386.916C380.953 386.982 381.25 386.982 381.977 387.048L386.964 384.142V383.052L381.977 385.958Z" fill="#1D1D1B"/>
<path d="M386.733 382.061C386.832 382.458 386.865 382.656 386.964 383.052L381.977 385.959C381.283 385.893 380.986 385.893 380.259 385.827L378.244 383.779C378.31 383.515 378.343 383.316 378.409 383.019L381.877 381.004C382.373 380.971 382.703 380.938 383.199 380.905L386.733 382.094V382.061Z" fill="#4B4B4A"/>
<path d="M388.317 380.874V381.502C388.317 381.502 388.416 381.832 388.648 381.964C389.077 382.228 389.804 382.228 390.233 381.964C390.464 381.832 390.563 381.667 390.563 381.502V380.874H388.35H388.317Z" fill="#1D1D1B"/>
<path d="M390.199 380.411C390.629 380.675 390.629 381.072 390.199 381.336C389.77 381.6 389.043 381.6 388.614 381.336C388.185 381.072 388.185 380.675 388.614 380.411C389.043 380.147 389.77 380.147 390.199 380.411Z" fill="#878787"/>
<path d="M383.496 377.934V378.991C383.496 379.255 383.661 379.552 384.024 379.75C384.751 380.18 385.907 380.18 386.634 379.75C386.997 379.552 387.162 379.255 387.162 378.991V377.934H383.463H383.496Z" fill="#1D1D1B"/>
<path d="M386.634 377.174C387.361 377.603 387.361 378.264 386.634 378.693C385.907 379.122 384.751 379.122 384.024 378.693C383.298 378.264 383.298 377.603 384.024 377.174C384.751 376.744 385.907 376.744 386.634 377.174Z" fill="#3C3C3B"/>
<path d="M386.073 377.503C386.469 377.735 386.469 378.131 386.073 378.362C385.676 378.593 384.983 378.593 384.586 378.362C384.19 378.131 384.19 377.735 384.586 377.503C384.983 377.272 385.676 377.272 386.073 377.503Z" fill="#878787"/>
<path d="M385.773 380.707C385.938 380.806 385.938 380.971 385.773 381.07C385.608 381.17 385.31 381.17 385.112 381.07C384.947 380.971 384.947 380.806 385.112 380.707C385.277 380.608 385.575 380.608 385.773 380.707Z" fill="#1D1D1B"/>
<path d="M376.132 386.884V387.643C376.132 387.842 376.264 388.04 376.528 388.172C377.024 388.469 377.849 388.469 378.378 388.172C378.642 388.04 378.774 387.842 378.774 387.643V386.884H376.165H376.132Z" fill="#1D1D1B"/>
<path d="M378.343 386.356C378.839 386.653 378.839 387.115 378.343 387.413C377.848 387.71 377.022 387.71 376.494 387.413C375.998 387.115 375.998 386.653 376.494 386.356C376.989 386.058 377.815 386.058 378.343 386.356Z" fill="#3C3C3B"/>
<path d="M376.328 386.158V386.786C376.328 386.786 376.427 387.116 376.658 387.248C377.088 387.512 377.781 387.512 378.211 387.248C378.442 387.116 378.541 386.951 378.541 386.786V386.158H376.328Z" fill="#1D1D1B"/>
<path d="M378.212 385.695C378.642 385.959 378.642 386.356 378.212 386.587C377.783 386.851 377.089 386.851 376.66 386.587C376.231 386.356 376.231 385.926 376.66 385.695C377.089 385.431 377.783 385.431 378.212 385.695Z" fill="#3C3C3B"/>
<path d="M377.78 385.96C377.945 386.059 377.945 386.224 377.78 386.323C377.614 386.422 377.317 386.422 377.119 386.323C376.954 386.224 376.954 386.059 377.119 385.96C377.284 385.861 377.581 385.861 377.78 385.96Z" fill="#1D1D1B"/>
<path d="M375.502 395.01C375.502 395.308 375.7 395.671 375.964 395.803C376.229 395.935 376.427 395.803 376.427 395.539V391.608C376.427 391.311 376.229 390.948 375.964 390.816C375.7 390.683 375.502 390.816 375.502 391.08V395.01Z" fill="#575756"/>
<path d="M389.738 385.993V390.617C389.738 391.046 389.441 391.542 389.077 391.773L382.901 395.34L382.24 396.364L381.48 395.935C381.48 395.935 381.282 395.704 381.282 395.505V390.221C381.282 389.791 381.579 389.296 381.943 389.064L389.044 384.969C389.243 384.87 389.408 384.87 389.507 384.936L390.266 385.365L389.705 386.026L389.738 385.993Z" fill="#706F6F"/>
<path d="M389.838 385.364L382.737 389.46C382.373 389.658 382.076 390.187 382.076 390.616V395.901C382.076 396.33 382.373 396.496 382.737 396.297L389.838 392.202C390.202 392.004 390.499 391.475 390.499 391.046V385.761C390.499 385.331 390.202 385.166 389.838 385.364Z" fill="#1D1D1B"/>
<path d="M389.772 386.057L383.001 389.922C382.902 389.988 382.803 390.087 382.737 390.219C382.671 390.351 382.604 390.483 382.604 390.616V395.537C382.604 395.537 382.704 395.669 382.77 395.636L389.574 391.706C389.574 391.706 389.772 391.54 389.838 391.408C389.904 391.276 389.97 391.144 389.97 391.012V386.223C389.97 386.223 389.871 386.024 389.772 386.024V386.057Z" fill="#706F6F"/>
<path d="M389.772 386.057L383.001 389.922C382.902 389.988 382.803 390.087 382.737 390.219C382.671 390.351 382.604 390.483 382.604 390.616V395.537L389.409 391.607C389.508 391.54 389.607 391.441 389.673 391.309C389.739 391.177 389.805 391.045 389.805 390.913V386.124C389.805 386.124 389.805 386.057 389.805 386.024L389.772 386.057Z" fill="#9D9D9C"/>
<path opacity="0.5" d="M386.435 393.128L382.769 391.146V390.617C382.769 390.617 382.802 390.419 382.868 390.32C382.934 390.188 383.033 390.122 383.066 390.089L384.321 389.362L388.483 391.906L386.402 393.128H386.435Z" fill="white"/>
<path opacity="0.5" d="M389.308 391.475L388.846 391.739L384.75 389.13L385.51 388.7L389.473 391.31C389.473 391.31 389.341 391.475 389.308 391.475Z" fill="white"/>
<path d="M384.619 378.989C384.553 378.196 383.991 377.272 383.33 376.908L383.033 376.743L379.103 379.022V383.58L380.985 384.67L384.916 382.424L384.619 379.055V378.989Z" fill="#3C3C3B"/>
<path d="M384.618 378.99L384.915 382.359L380.984 384.605L380.687 381.236C380.621 380.443 380.059 379.518 379.399 379.155L379.102 378.99L383.032 376.711L383.329 376.876C383.99 377.272 384.552 378.164 384.618 378.957V378.99Z" fill="#1D1D1B"/>
<path d="M380.952 384.639L380.655 381.269C380.589 380.477 380.027 379.552 379.367 379.189L379.069 379.023V383.582L380.952 384.672V384.639Z" fill="#3C3C3B"/>
<path d="M396.379 385.76C395.949 383.382 395.883 381.334 394.76 379.385C393.406 378.328 392.052 377.734 390.698 377.767L386.998 379.022C386.007 379.65 386.569 380.674 387.692 380.475L390.665 379.815C390.665 379.815 390.962 383.613 392.184 384.769C393.406 385.925 396.379 385.793 396.379 385.793V385.76Z" fill="#FFAE80"/>
<path d="M437.698 391.443L415.039 392.896L396.245 384.969C393.635 385.464 393.437 390.221 394.065 391.476C397.896 397.388 403.941 403.301 412.76 407.429L437.07 408.519L437.698 391.476V391.443Z" fill="white"/>
<path d="M366.385 386.85L367.31 384.703L369.688 383.118C370.646 382.457 371.604 383.283 370.547 384.307L369.259 385.793L370.712 388.535C371.505 389.856 372 391.375 372.099 392.895L372.298 395.603C369.754 397.288 366.914 393.06 364.436 390.021L363.115 385.067L364.139 385.661L366.385 386.883V386.85Z" fill="#FFAE80"/>
<path d="M431.058 397.354L422.702 385.133L408.829 391.309L415.171 401.384L431.058 397.354Z" fill="#FFAE80"/>
<path d="M413.452 395.636C413.452 395.636 411.734 399.005 408.828 396.33C405.921 393.688 401.132 384.935 402.717 377.899C404.303 370.864 416.094 380.409 416.094 380.409L413.452 395.603V395.636Z" fill="#FFAE80"/>
<path d="M425.839 389.856C425.839 389.856 419.695 391.375 415.533 394.084C414.476 394.778 412.495 394.414 411.471 393.655L409.852 391.706L409.258 388.997L406.45 387.874L406.648 384.968C405.096 384.538 403.709 383.382 402.42 381.929C401.694 380.674 401.396 378.989 401.793 376.314C403.048 371.689 408.861 368.32 415.17 368.75C426.169 369.344 428.878 381.136 425.806 389.889L425.839 389.856Z" fill="black"/>
<path d="M407.671 387.775C407.671 387.445 407.671 387.115 407.803 386.784C407.935 386.454 408.166 386.157 408.53 386.025C409.223 385.76 410.016 386.223 410.313 386.784C410.611 387.346 410.545 388.006 410.445 388.634C410.379 389.096 410.313 389.526 410.28 389.988C410.214 390.352 410.181 390.748 409.95 391.078C409.719 391.409 409.289 391.673 408.827 391.607C408.497 391.541 408.232 391.342 408.1 391.078C407.968 390.814 407.902 390.55 407.869 390.286C407.737 389.46 407.671 388.601 407.671 387.775Z" fill="#FFAE80"/>
<path d="M397.301 431.045C394.13 431.045 390.959 429.262 387.788 425.728C379.894 416.875 374.444 399.568 375.369 393.787C375.435 393.457 375.732 393.226 376.095 393.259C376.459 393.325 376.69 393.622 376.624 393.986C375.831 398.973 380.852 416.05 388.746 424.902C391.752 428.271 394.724 429.922 397.598 429.79C401.43 429.625 402.454 424.142 403.643 417.767C404.832 411.359 406.186 404.126 410.81 400.162C419.728 392.532 427.49 389.559 433.238 391.541C433.568 391.64 433.733 392.004 433.634 392.334C433.535 392.664 433.172 392.829 432.841 392.73C426.136 390.418 417.614 396.033 411.636 401.12C407.342 404.786 406.054 411.789 404.898 417.998C403.61 424.902 402.487 430.88 397.664 431.078C397.565 431.078 397.433 431.078 397.334 431.078L397.301 431.045Z" fill="black"/>
<path d="M455.964 442.375C450.712 440.459 441.827 446.338 433.635 450.401C428.912 452.746 424.387 454.497 420.886 453.803C416.129 447.23 414.841 444.786 411.472 437.42C411.175 436.759 410.878 436.066 410.58 435.405C410.415 435.042 410.25 434.678 410.085 434.282C409.854 433.754 409.622 433.225 409.424 432.664C409.226 432.168 409.061 431.673 408.863 431.21C408.731 430.88 408.598 430.55 408.499 430.219C408.433 430.12 408.4 430.021 408.367 429.889C408.169 429.394 408.004 428.898 407.839 428.403C407.475 427.346 407.013 426.025 406.551 424.571C404.569 418.56 401.926 410.005 401.101 405.282C401.101 405.282 413.091 400.294 413.883 399.468C418.706 394.415 427.591 392.235 427.591 392.235C433.206 391.244 440.968 389.163 445.989 396.529C451.273 408.717 457.549 430.847 455.964 442.375Z" fill="white"/>
<g style="mix-blend-mode:multiply" opacity="0.5">
<path d="M433.634 450.4C428.911 452.745 424.386 454.496 420.885 453.802C417.317 448.584 414.114 443.101 411.471 437.419C411.174 436.759 410.877 436.065 410.579 435.405C410.414 435.041 410.249 434.678 410.084 434.281C409.853 433.753 409.621 433.225 409.423 432.663C409.225 432.168 409.06 431.672 408.862 431.21C408.73 430.879 408.597 430.549 408.498 430.219C408.432 430.12 408.399 430.021 408.366 429.888C407.706 428.138 407.078 426.354 406.55 424.571C406.351 423.844 406.153 423.117 405.955 422.424C408.003 418.559 410.447 423.778 411.834 419.22C413.552 437.089 424.155 446.503 433.634 450.433V450.4Z" fill="#9D9D9C"/>
</g>
<path d="M367.41 393.886C367.41 401.78 371.01 411.127 375.469 420.805C383.925 425.033 399.218 424.538 412.43 424.108C421.613 422.721 418.541 401.516 406.121 403.167C398.128 406.437 390.333 406.371 382.406 408.155L373.587 393.423C370.581 392.003 368.896 392.465 367.377 393.886H367.41Z" fill="white"/>
<path opacity="0.2" d="M559.844 465.989C571.669 472.827 571.669 483.859 559.844 490.696C548.019 497.533 528.861 497.533 517.037 490.696C505.212 483.859 505.212 472.827 517.037 465.989C528.861 459.152 548.019 459.152 559.844 465.989Z" fill="#6E1E25"/>
<path opacity="0.2" d="M431.721 565.444C451.24 565.444 467.064 556.305 467.064 545.032C467.064 533.758 451.24 524.619 431.721 524.619C412.202 524.619 396.379 533.758 396.379 545.032C396.379 556.305 412.202 565.444 431.721 565.444Z" fill="#6E1E25"/>
</svg>
